<svg width="305" height="323" viewBox="0 0 305 323" fill="none" xmlns="http://www.w3.org/2000/svg">
<g clip-path="url(#clip0)">
<path d="M109.297 22.0057C74.9143 56.5947 57.9607 32.5596 36.2176 66.3472C22.1495 88.1939 13.915 118.027 23.0155 157.767C47.7379 265.682 45.8152 254.674 78.9191 276.69C112.023 298.706 102.854 334.876 147.922 319.15C192.99 303.424 248.615 339.597 265.306 280.885C281.997 222.173 238.733 170.158 270.252 137.717C301.771 105.276 287.03 4.91464 201.721 1.76819C154.265 0.0180701 137.152 -6.02124 109.297 22.0057Z" fill="#F8F8FF"/>
<path d="M102.407 61.291C63.3285 84.9317 44.0614 68.4919 19.3484 91.6034C3.37326 106.537 -5.99924 126.935 4.34239 154.094C32.4442 227.871 30.259 220.336 67.8803 235.395C105.502 250.454 95.0786 275.175 146.305 264.424C197.532 253.672 260.754 278.399 279.721 238.263C298.688 198.126 249.515 162.566 285.348 140.388C321.181 118.209 304.419 49.5944 207.47 47.4466C153.514 46.2632 134.066 42.1306 102.407 61.291Z" fill="#F8F8FF"/>
<path d="M79.8101 88.6854V191.063H234.247L234.403 84.4589L79.8101 84.3023V88.6854Z" fill="#E1E6FB"/>
<path d="M68.2429 97.7648V200.142H222.68L222.836 93.5382L68.2429 93.3816V97.7648Z" fill="#557292"/>
<path d="M77.4654 104.026C77.4654 102.73 76.4156 101.678 75.1207 101.678C73.8258 101.678 72.776 102.73 72.776 104.026C72.776 105.323 73.8258 106.374 75.1207 106.374C76.4156 106.374 77.4654 105.323 77.4654 104.026Z" fill="#BAC5F4"/>
<path d="M84.6557 104.026C84.6557 102.73 83.6059 101.678 82.311 101.678C81.0161 101.678 79.9663 102.73 79.9663 104.026C79.9663 105.323 81.0161 106.374 82.311 106.374C83.6059 106.374 84.6557 105.323 84.6557 104.026Z" fill="#BAC5F4"/>
<path d="M91.8461 104.026C91.8461 102.73 90.7964 101.678 89.5014 101.678C88.2065 101.678 87.1567 102.73 87.1567 104.026C87.1567 105.323 88.2065 106.374 89.5014 106.374C90.7964 106.374 91.8461 105.323 91.8461 104.026Z" fill="#BAC5F4"/>
<g opacity="0.5">
<path d="M77.1527 117.019H76.5275V148.953H77.1527V117.019Z" fill="#D6D6D6"/>
<path d="M79.9663 117.019H79.3411V148.953H79.9663V117.019Z" fill="#D6D6D6"/>
<path d="M82.4673 117.019H81.842V148.953H82.4673V117.019Z" fill="#D6D6D6"/>
<path d="M85.281 117.019H84.6558V148.953H85.281V117.019Z" fill="#D6D6D6"/>
<path d="M87.782 117.019H87.1567V148.953H87.782V117.019Z" fill="#D6D6D6"/>
<path d="M90.5956 117.019H89.9703V148.953H90.5956V117.019Z" fill="#D6D6D6"/>
<path d="M93.0966 117.019H92.4713V148.953H93.0966V117.019Z" fill="#D6D6D6"/>
<path d="M95.5977 117.019H94.9724V148.953H95.5977V117.019Z" fill="#D6D6D6"/>
<path d="M98.0986 117.019H97.4734V148.953H98.0986V117.019Z" fill="#D6D6D6"/>
<path d="M100.912 117.019H100.287V148.953H100.912V117.019Z" fill="#D6D6D6"/>
<path d="M103.413 117.019H102.788V148.953H103.413V117.019Z" fill="#D6D6D6"/>
<path d="M106.227 117.019H105.602V148.953H106.227V117.019Z" fill="#D6D6D6"/>
<path d="M108.728 117.019H108.103V148.953H108.728V117.019Z" fill="#D6D6D6"/>
<path d="M108.728 117.019H76.5275V117.645H108.728V117.019Z" fill="#D6D6D6"/>
<path d="M108.728 120.15H76.5275V120.776H108.728V120.15Z" fill="#D6D6D6"/>
<path d="M108.728 123.281H76.5275V123.907H108.728V123.281Z" fill="#D6D6D6"/>
<path d="M108.728 126.412H76.5275V127.038H108.728V126.412Z" fill="#D6D6D6"/>
<path d="M108.728 129.542H76.5275V130.169H108.728V129.542Z" fill="#D6D6D6"/>
<path d="M108.728 132.673H76.5275V133.299H108.728V132.673Z" fill="#D6D6D6"/>
<path d="M108.728 135.804H76.5275V136.43H108.728V135.804Z" fill="#D6D6D6"/>
<path d="M108.728 138.935H76.5275V139.561H108.728V138.935Z" fill="#D6D6D6"/>
<path d="M108.728 142.066H76.5275V142.692H108.728V142.066Z" fill="#D6D6D6"/>
<path d="M108.728 145.196H76.5275V145.823H108.728V145.196Z" fill="#D6D6D6"/>
<path d="M108.728 148.327H76.5275V148.953H108.728V148.327Z" fill="#D6D6D6"/>
<path d="M116.543 157.093H115.918V189.028H116.543V157.093Z" fill="#61D095"/>
<path d="M119.357 157.093H118.732V189.028H119.357V157.093Z" fill="#61D095"/>
<path d="M121.858 157.093H121.233V189.028H121.858V157.093Z" fill="#61D095"/>
<path d="M124.672 157.093H124.046V189.028H124.672V157.093Z" fill="#61D095"/>
<path d="M127.173 157.093H126.547V189.028H127.173V157.093Z" fill="#61D095"/>
<path d="M129.986 157.093H129.361V189.028H129.986V157.093Z" fill="#61D095"/>
<path d="M132.487 157.093H131.862V189.028H132.487V157.093Z" fill="#61D095"/>
<path d="M134.988 157.093H134.363V189.028H134.988V157.093Z" fill="#61D095"/>
<path d="M137.489 157.093H136.864V189.028H137.489V157.093Z" fill="#61D095"/>
<path d="M140.303 157.093H139.678V189.028H140.303V157.093Z" fill="#61D095"/>
<path d="M142.804 157.093H142.179V189.028H142.804V157.093Z" fill="#61D095"/>
<path d="M145.618 157.093H144.992V189.028H145.618V157.093Z" fill="#61D095"/>
<path d="M148.119 157.093H147.493V189.028H148.119V157.093Z" fill="#61D095"/>
<path d="M148.119 157.093H115.918V157.72H148.119V157.093Z" fill="#61D095"/>
<path d="M148.119 160.224H115.918V160.85H148.119V160.224Z" fill="#61D095"/>
<path d="M148.119 163.355H115.918V163.981H148.119V163.355Z" fill="#61D095"/>
<path d="M148.119 166.486H115.918V167.112H148.119V166.486Z" fill="#61D095"/>
<path d="M148.119 169.617H115.918V170.243H148.119V169.617Z" fill="#61D095"/>
<path d="M148.119 172.747H115.918V173.374H148.119V172.747Z" fill="#61D095"/>
<path d="M148.119 175.878H115.918V176.504H148.119V175.878Z" fill="#61D095"/>
<path d="M148.119 179.009H115.918V179.635H148.119V179.009Z" fill="#61D095"/>
<path d="M148.119 182.14H115.918V182.766H148.119V182.14Z" fill="#61D095"/>
<path d="M148.119 185.271H115.918V185.897H148.119V185.271Z" fill="#61D095"/>
<path d="M148.119 188.401H115.918V189.028H148.119V188.401Z" fill="#61D095"/>
<path d="M151.87 120.463H151.245V152.397H151.87V120.463Z" fill="#FF6B6B"/>
<path d="M154.684 120.463H154.058V152.397H154.684V120.463Z" fill="#FF6B6B"/>
<path d="M157.185 120.463H156.56V152.397H157.185V120.463Z" fill="#FF6B6B"/>
<path d="M159.998 120.463H159.373V152.397H159.998V120.463Z" fill="#FF6B6B"/>
<path d="M162.499 120.463H161.874V152.397H162.499V120.463Z" fill="#FF6B6B"/>
<path d="M165.313 120.463H164.688V152.397H165.313V120.463Z" fill="#FF6B6B"/>
<path d="M167.814 120.463H167.189V152.397H167.814V120.463Z" fill="#FF6B6B"/>
<path d="M170.315 120.463H169.69V152.397H170.315V120.463Z" fill="#FF6B6B"/>
<path d="M172.816 120.463H172.191V152.397H172.816V120.463Z" fill="#FF6B6B"/>
<path d="M175.63 120.463H175.004V152.397H175.63V120.463Z" fill="#FF6B6B"/>
<path d="M178.131 120.463H177.505V152.397H178.131V120.463Z" fill="#FF6B6B"/>
<path d="M180.944 120.463H180.319V152.397H180.944V120.463Z" fill="#FF6B6B"/>
<path d="M183.445 120.463H182.82V152.397H183.445V120.463Z" fill="#FF6B6B"/>
<path d="M183.445 120.463H151.245V121.089H183.445V120.463Z" fill="#FF6B6B"/>
<path d="M183.445 123.594H151.245V124.22H183.445V123.594Z" fill="#FF6B6B"/>
<path d="M183.445 126.725H151.245V127.351H183.445V126.725Z" fill="#FF6B6B"/>
<path d="M183.445 129.855H151.245V130.482H183.445V129.855Z" fill="#FF6B6B"/>
<path d="M183.445 132.986H151.245V133.612H183.445V132.986Z" fill="#FF6B6B"/>
<path d="M183.445 136.117H151.245V136.743H183.445V136.117Z" fill="#FF6B6B"/>
<path d="M183.445 139.248H151.245V139.874H183.445V139.248Z" fill="#FF6B6B"/>
<path d="M183.445 142.379H151.245V143.005H183.445V142.379Z" fill="#FF6B6B"/>
<path d="M183.445 145.509H151.245V146.136H183.445V145.509Z" fill="#FF6B6B"/>
<path d="M183.445 148.64H151.245V149.266H183.445V148.64Z" fill="#FF6B6B"/>
<path d="M183.445 151.771H151.245V152.397H183.445V151.771Z" fill="#FF6B6B"/>
</g>
<path d="M137.802 127.038H91.8462V158.972H137.802V127.038Z" fill="#BAC5F4"/>
<path d="M142.491 131.108H96.5355V163.042H142.491V131.108Z" fill="#304D6D"/>
<path d="M132.175 135.491H105.914V136.117H132.175V135.491Z" fill="white"/>
<path d="M127.485 137.056H105.914V137.682H127.485V137.056Z" fill="white"/>
<path d="M134.363 138.309H105.914V138.935H134.363V138.309Z" fill="white"/>
<path d="M118.419 142.379H105.914V143.005H118.419V142.379Z" fill="white"/>
<path d="M124.984 143.944H105.914V144.57H124.984V143.944Z" fill="white"/>
<path d="M123.734 145.196H105.914V145.823H123.734V145.196Z" fill="white"/>
<path d="M118.419 149.579H105.914V150.206H118.419V149.579Z" fill="white"/>
<path d="M124.984 151.145H105.914V151.771H124.984V151.145Z" fill="white"/>
<path d="M123.734 152.397H105.914V153.023H123.734V152.397Z" fill="white"/>
<path d="M102.006 139.248C103.129 139.248 104.038 138.337 104.038 137.213C104.038 136.089 103.129 135.178 102.006 135.178C100.884 135.178 99.9744 136.089 99.9744 137.213C99.9744 138.337 100.884 139.248 102.006 139.248Z" fill="#61D095"/>
<path d="M102.006 145.823C103.129 145.823 104.038 144.911 104.038 143.788C104.038 142.664 103.129 141.752 102.006 141.752C100.884 141.752 99.9744 142.664 99.9744 143.788C99.9744 144.911 100.884 145.823 102.006 145.823Z" fill="#61D095"/>
<path d="M102.319 153.336C103.441 153.336 104.351 152.425 104.351 151.301C104.351 150.178 103.441 149.266 102.319 149.266C101.197 149.266 100.287 150.178 100.287 151.301C100.287 152.425 101.197 153.336 102.319 153.336Z" fill="#61D095"/>
<path d="M213.144 131.108H190.323V131.734H213.144V131.108Z" fill="#D6D6D6"/>
<path d="M213.144 134.552H190.323V135.178H213.144V134.552Z" fill="#D6D6D6"/>
<path d="M213.144 137.996H190.323V138.622H213.144V137.996Z" fill="#D6D6D6"/>
<path d="M213.144 141.439H190.323V142.066H213.144V141.439Z" fill="#D6D6D6"/>
<path d="M213.144 144.883H190.323V145.509H213.144V144.883Z" fill="#D6D6D6"/>
<path d="M213.144 148.327H190.323V148.953H213.144V148.327Z" fill="#D6D6D6"/>
<path d="M213.144 151.771H190.323V152.397H213.144V151.771Z" fill="#D6D6D6"/>
<path d="M213.144 155.215H190.323V155.841H213.144V155.215Z" fill="#D6D6D6"/>
<path d="M213.144 158.659H190.323V159.285H213.144V158.659Z" fill="#D6D6D6"/>
<path d="M215.02 108.879H71.838V109.505H215.02V108.879Z" fill="#FF6B6B"/>
<path d="M201.734 127.351C205.619 127.351 208.768 124.197 208.768 120.307C208.768 116.416 205.619 113.262 201.734 113.262C197.849 113.262 194.7 116.416 194.7 120.307C194.7 124.197 197.849 127.351 201.734 127.351Z" fill="white"/>
<path d="M211.269 91.3466V85.085C211.269 85.085 211.894 83.5196 209.08 82.2673C206.267 81.015 201.265 76.0057 201.577 67.5525C201.89 59.0994 209.706 51.5855 218.459 52.2116C227.213 52.8378 233.465 59.7255 233.778 69.1179C234.09 78.5103 225.649 82.2673 225.649 82.2673C225.649 82.2673 224.086 82.5804 224.086 84.1458V91.3466H211.269Z" fill="#61D095"/>
<path d="M197.552 56.2154L197.216 56.7433L202.487 60.1113L202.823 59.5835L197.552 56.2154Z" fill="#9FE2BF"/>
<path d="M211.861 45.6568L211.249 45.7872L212.551 51.9115L213.163 51.7811L211.861 45.6568Z" fill="#9FE2BF"/>
<path d="M229.764 48.168L229.234 47.8345L225.905 53.1342L226.434 53.4677L229.764 48.168Z" fill="#9FE2BF"/>
<path d="M240.265 62.1879L240.071 61.5925L234.126 63.5305L234.319 64.1259L240.265 62.1879Z" fill="#9FE2BF"/>
<path d="M237.84 80.4505L238.17 79.9192L232.865 76.6066L232.534 77.1379L237.84 80.4505Z" fill="#9FE2BF"/>
<path d="M205.273 88.5052L205.802 88.8389L209.135 83.541L208.606 83.2072L205.273 88.5052Z" fill="#9FE2BF"/>
<path d="M195.003 74.5302L195.145 75.14L201.234 73.7176L201.092 73.1078L195.003 74.5302Z" fill="#9FE2BF"/>
<path d="M224.243 91.3466H211.112C210.508 91.3466 210.018 91.8372 210.018 92.4424C210.018 93.0476 210.508 93.5382 211.112 93.5382H224.243C224.847 93.5382 225.337 93.0476 225.337 92.4424C225.337 91.8372 224.847 91.3466 224.243 91.3466Z" fill="#304D6D"/>
<path d="M223.93 95.4166H211.425C210.821 95.4166 210.331 95.9072 210.331 96.5124C210.331 97.1176 210.821 97.6082 211.425 97.6082H223.93C224.534 97.6082 225.024 97.1176 225.024 96.5124C225.024 95.9072 224.534 95.4166 223.93 95.4166Z" fill="#304D6D"/>
<path d="M224.086 93.5382H211.269C210.751 93.5382 210.331 93.9587 210.331 94.4774C210.331 94.9962 210.751 95.4167 211.269 95.4167H224.086C224.604 95.4167 225.024 94.9962 225.024 94.4774C225.024 93.9587 224.604 93.5382 224.086 93.5382Z" fill="#393A10"/>
<path d="M211.894 97.6082H223.38C223.38 97.6082 223.149 101.365 217.834 101.365C212.519 101.365 212.832 99.1736 211.894 97.6082Z" fill="#304D6D"/>
<path d="M222.064 136.743H258.819C258.981 136.743 259.141 136.777 259.289 136.843C259.437 136.909 259.57 137.006 259.678 137.127C259.786 137.248 259.868 137.39 259.918 137.545C259.967 137.699 259.984 137.862 259.966 138.024L257.406 161.386C257.374 161.669 257.24 161.93 257.028 162.12C256.817 162.31 256.543 162.415 256.259 162.416H219.503C219.341 162.416 219.181 162.382 219.033 162.316C218.885 162.249 218.752 162.153 218.644 162.032C218.536 161.911 218.454 161.769 218.405 161.614C218.355 161.46 218.338 161.297 218.356 161.135L220.916 137.773C220.947 137.49 221.081 137.228 221.293 137.038C221.505 136.848 221.779 136.743 222.064 136.743Z" fill="#E1E6FB"/>
<path d="M219.563 136.743H256.318C256.48 136.743 256.64 136.777 256.788 136.843C256.936 136.909 257.069 137.006 257.177 137.127C257.285 137.248 257.367 137.39 257.417 137.545C257.466 137.699 257.483 137.862 257.465 138.024L254.905 161.386C254.873 161.669 254.739 161.93 254.527 162.12C254.316 162.31 254.042 162.415 253.758 162.416H217.002C216.84 162.416 216.68 162.382 216.532 162.316C216.384 162.249 216.251 162.153 216.143 162.032C216.035 161.911 215.953 161.769 215.904 161.614C215.854 161.46 215.837 161.297 215.855 161.135L218.415 137.773C218.446 137.49 218.58 137.228 218.792 137.038C219.004 136.848 219.278 136.743 219.563 136.743Z" fill="white"/>
<path d="M219.084 136.847L234.159 150.832L256.799 136.847H219.084Z" fill="#BAC5F4"/>
<path d="M193.121 232.07L148.644 231.92C147.481 231.92 146.54 231.863 146.543 230.698L146.565 224.75C146.565 223.598 147.503 223.767 148.647 223.754L192.836 223.31C193.39 223.341 194.318 222.956 195.847 223.623C197.904 224.506 199.38 229.919 194.997 231.782C194.385 231.95 193.755 232.046 193.121 232.07Z" fill="#5A5B18"/>
<path d="M147.275 230.692L159.176 230.736C159.37 230.736 159.557 230.659 159.695 230.522C159.832 230.384 159.91 230.198 159.911 230.003V225.288C159.911 225.094 159.834 224.907 159.697 224.769C159.56 224.631 159.374 224.554 159.179 224.553L147.281 224.512C147.037 224.486 146.79 224.497 146.549 224.546L146.543 230.667C146.786 230.692 147.03 230.701 147.275 230.692Z" fill="white"/>
<path d="M151.232 215.044H195.706C196.869 215.044 197.813 215.095 197.813 216.259V222.208C197.813 223.36 196.875 223.194 195.734 223.21L151.545 223.811C150.995 223.786 150.063 223.557 148.631 223.069C146.512 222.349 144.98 217.236 149.356 215.358C149.968 215.181 150.597 215.076 151.232 215.044Z" fill="#75770E"/>
<path d="M197.082 216.266H185.183C184.989 216.266 184.803 216.343 184.665 216.48C184.527 216.617 184.45 216.804 184.449 216.998V221.716C184.45 221.911 184.527 222.097 184.665 222.234C184.803 222.372 184.989 222.449 185.183 222.449H197.082C197.326 222.473 197.573 222.461 197.813 222.411V216.281C197.57 216.257 197.326 216.252 197.082 216.266Z" fill="#B0C0F4"/>
<path d="M147.468 207.65H191.942C193.108 207.65 194.049 207.696 194.049 208.861V214.81C194.049 215.965 193.112 215.796 191.97 215.812L147.781 216.413C147.231 216.384 146.299 216.156 144.867 215.668C142.748 214.951 141.216 209.838 145.593 207.959C146.203 207.783 146.833 207.679 147.468 207.65Z" fill="#5A5B18"/>
<path d="M193.318 208.861H181.419C181.323 208.861 181.228 208.88 181.139 208.917C181.05 208.954 180.969 209.008 180.901 209.077C180.833 209.145 180.779 209.226 180.743 209.316C180.706 209.405 180.687 209.5 180.688 209.597V214.312C180.687 214.408 180.706 214.504 180.743 214.593C180.779 214.682 180.833 214.763 180.901 214.831C180.969 214.899 181.05 214.953 181.139 214.99C181.228 215.026 181.323 215.045 181.419 215.044H193.318C193.562 215.067 193.808 215.055 194.049 215.01V208.883C193.806 208.859 193.562 208.852 193.318 208.861Z" fill="white"/>
<path d="M65.6262 217.618C77.2167 217.618 86.6127 208.208 86.6127 196.601C86.6127 184.994 77.2167 175.584 65.6262 175.584C54.0356 175.584 44.6396 184.994 44.6396 196.601C44.6396 208.208 54.0356 217.618 65.6262 217.618Z" stroke="#E1E6FB" stroke-width="1.17342" stroke-miterlimit="10" stroke-dasharray="3.44 3.44"/>
<path d="M68.1678 216.059H63.0814C62.4391 216.059 61.9185 216.58 61.9185 217.224C61.9185 217.867 62.4391 218.388 63.0814 218.388H68.1678C68.8101 218.388 69.3308 217.867 69.3308 217.224C69.3308 216.58 68.8101 216.059 68.1678 216.059Z" fill="#E1E6FB"/>
<path d="M65.7356 215.12C76.0087 215.12 84.3368 206.779 84.3368 196.491C84.3368 186.203 76.0087 177.863 65.7356 177.863C55.4624 177.863 47.1344 186.203 47.1344 196.491C47.1344 206.779 55.4624 215.12 65.7356 215.12Z" fill="#E1E6FB"/>
<path d="M66.4859 217.618H64.979V307.209H66.4859V217.618Z" fill="#E1E6FB"/>
<path d="M87.1197 256.733C93.4145 250.429 93.4145 240.208 87.1197 233.904C80.8249 227.6 70.6189 227.6 64.3241 233.904C58.0292 240.208 58.0292 250.429 64.3241 256.733C70.6189 263.037 80.8249 263.037 87.1197 256.733Z" stroke="#E1E6FB" stroke-width="1.17342" stroke-miterlimit="10" stroke-dasharray="3.39 3.39"/>
<path d="M77.7248 260.266H73.7201C73.2539 260.266 72.876 260.644 72.876 261.111V261.208C72.876 261.675 73.2539 262.053 73.7201 262.053H77.7248C78.191 262.053 78.5689 261.675 78.5689 261.208V261.111C78.5689 260.644 78.191 260.266 77.7248 260.266Z" fill="#E1E6FB"/>
<path d="M78.3312 307.209H62.9751C62.5089 307.209 62.131 307.587 62.131 308.054V308.151C62.131 308.618 62.5089 308.997 62.9751 308.997H78.3312C78.7974 308.997 79.1753 308.618 79.1753 308.151V308.054C79.1753 307.587 78.7974 307.209 78.3312 307.209Z" fill="#E1E6FB"/>
<path d="M82.2891 308.774H58.7015C58.2353 308.774 57.8574 309.153 57.8574 309.62V309.717C57.8574 310.184 58.2353 310.562 58.7015 310.562H82.2891C82.7552 310.562 83.1331 310.184 83.1331 309.717V309.62C83.1331 309.153 82.7552 308.774 82.2891 308.774Z" fill="#E1E6FB"/>
<path d="M75.8083 259.543C83.6988 259.543 90.0953 253.137 90.0953 245.235C90.0953 237.333 83.6988 230.927 75.8083 230.927C67.9179 230.927 61.5214 237.333 61.5214 245.235C61.5214 253.137 67.9179 259.543 75.8083 259.543Z" fill="#E1E6FB"/>
<path d="M76.5117 217.618H75.0049V307.209H76.5117V217.618Z" fill="#E1E6FB"/>
<path d="M183.845 273.493C183.538 273.853 183.312 274.274 183.18 274.729C183.049 275.183 183.017 275.66 183.085 276.129C183.153 276.597 183.32 277.045 183.575 277.443C183.83 277.841 184.168 278.18 184.564 278.437C194.825 285.084 229.32 304.66 257.719 288.286C291.482 268.813 305.791 217.158 304.981 212.289C304.172 207.421 287.427 206.475 259.338 207.49C231.249 208.504 262.839 257.727 230.702 262.323C198.564 266.919 206.942 253.669 196.672 261.512C191.993 265.05 187.695 269.065 183.845 273.493Z" fill="#FF6B6B"/>
<path d="M202.5 259.104C202.5 259.104 244.888 270.303 246.114 245.805C247.812 211.654 254.886 214.472 254.355 236.259C253.823 258.046 254.152 259.74 244.038 264.045C235.325 267.755 228.019 268.409 216.302 266.048C206.723 264.12 202.5 259.104 202.5 259.104Z" fill="#F45252"/>
<path d="M197.458 282.812L195.648 281.415L185.424 294.695L187.234 296.092L197.458 282.812Z" fill="#393A10"/>
<path d="M185.465 299.933C187.229 299.933 188.66 298.5 188.66 296.733C188.66 294.966 187.229 293.534 185.465 293.534C183.7 293.534 182.27 294.966 182.27 296.733C182.27 298.5 183.7 299.933 185.465 299.933Z" fill="#414219"/>
<path d="M219.322 290.964L217.343 289.82L208.971 304.342L210.95 305.486L219.322 290.964Z" fill="#393A10"/>
<path d="M209.446 309.607C211.211 309.607 212.641 308.175 212.641 306.407C212.641 304.64 211.211 303.208 209.446 303.208C207.682 303.208 206.251 304.64 206.251 306.407C206.251 308.175 207.682 309.607 209.446 309.607Z" fill="#414219"/>
<path d="M257.262 286.708L255.505 288.171L268.525 303.848L270.282 302.385L257.262 286.708Z" fill="#393A10"/>
<path d="M270.277 307.807C272.041 307.807 273.472 306.374 273.472 304.607C273.472 302.84 272.041 301.408 270.277 301.408C268.512 301.408 267.082 302.84 267.082 304.607C267.082 306.374 268.512 307.807 270.277 307.807Z" fill="#414219"/>
<path d="M232.967 279.351L231.21 280.814L244.229 296.492L245.986 295.028L232.967 279.351Z" fill="#393A10"/>
<path d="M245.983 300.453C247.747 300.453 249.178 299.02 249.178 297.253C249.178 295.486 247.747 294.053 245.983 294.053C244.218 294.053 242.788 295.486 242.788 297.253C242.788 299.02 244.218 300.453 245.983 300.453Z" fill="#414219"/>
</g>
<defs>
<clipPath id="clip0">
<rect width="305" height="323" fill="white"/>
</clipPath>
</defs>
</svg>
