<svg width="272" height="318" viewBox="0 0 272 318" fill="none" xmlns="http://www.w3.org/2000/svg">
<g clip-path="url(#clip0)">
<path d="M7.71466 240.881C9.88989 236.077 13.2617 229.271 17.2437 226.448C27.4938 219.201 51.885 206.658 94.5457 227.201C142.361 250.222 143.712 207.983 190.648 205.068C224.461 202.974 261.143 211.967 269.099 229.182C276.58 245.341 270.248 284.718 240.782 281.939C187.681 276.93 191.163 288.581 140.186 308.704C88.02 329.286 76.8625 275.981 27.898 291.792C-4.4611 302.234 -2.19077 262.885 7.71466 240.881Z" fill="#E9EDFB"/>
<path d="M226.914 35.6527L175.418 170.941H178.663L226.914 35.6527Z" fill="#E9EDFB"/>
<path d="M227.366 12.6796C227.366 12.6796 224.517 30.7242 226.914 35.6527C226.914 35.6527 232.988 25.3513 227.366 12.6796Z" fill="#E9EDFB"/>
<path d="M214.382 17.5922C214.382 17.5922 219.33 32.8261 223.574 35.7769C223.574 35.7769 224.806 25.3833 214.382 17.5922Z" fill="#E9EDFB"/>
<path d="M241.134 8.3277C241.134 8.3277 226.573 27.6174 227.706 34.8841C227.706 34.8841 243.187 26.6765 241.134 8.3277Z" fill="#E9EDFB"/>
<path d="M207.824 24.1342C207.824 24.1342 212.642 43.6281 214.314 49.1131C214.711 50.4023 215.107 50.9908 215.503 51.0949C216.692 51.4032 217.805 47.3154 218.063 44.4808C218.415 40.7054 216.553 28.9906 207.824 24.1342Z" fill="#E9EDFB"/>
<path d="M215.772 50.7827C215.772 50.7827 215.729 50.6826 215.737 50.8427C215.816 52.5763 216.319 63.102 215.915 64.8836C215.471 66.8334 217.06 62.3933 217.06 62.3933L215.772 50.7827Z" fill="#E9EDFB"/>
<path d="M223.578 35.5926C223.578 35.5926 223.404 35.4966 223.419 35.5566C223.859 37.2462 223.261 44.1765 222.857 45.9662C222.413 47.912 223.649 44.4288 223.649 44.4288L223.578 35.5926Z" fill="#E9EDFB"/>
<path d="M203.446 31.7532C203.446 31.7532 204.504 57.1485 207.381 62.9819C211.046 70.4127 213.122 56.9363 212.745 54.418C212.369 51.8997 211.501 37.4184 203.446 31.7532Z" fill="#E9EDFB"/>
<path d="M223.578 35.5926C223.578 35.5926 223.404 35.4966 223.419 35.5566C223.859 37.2462 223.261 44.1765 222.857 45.9662C222.413 47.912 223.649 44.4288 223.649 44.4288L223.578 35.5926Z" fill="#E9EDFB"/>
<path d="M209.786 64.311C209.786 64.311 209.738 64.1949 209.746 64.3751C209.821 66.3089 210.305 78.0397 209.893 80.0255C209.445 82.1995 211.05 77.2509 211.05 77.2509L209.786 64.311Z" fill="#E9EDFB"/>
<path d="M188.877 41.4821C188.877 41.4821 196.009 70.5808 200.272 76.8346C205.673 84.7939 206.144 68.4269 205.166 65.5803C204.187 62.7336 198.184 46.6749 188.877 41.4821Z" fill="#E9EDFB"/>
<path d="M203.228 78.7002C203.228 78.7002 203.097 78.2078 203.105 78.408C203.189 80.566 204.714 92.3087 204.25 94.5268C203.747 96.949 205.538 91.8563 205.538 91.8563L203.228 78.7002Z" fill="#E9EDFB"/>
<path d="M180.497 54.8344C180.497 54.8344 190.006 85.0741 194.254 91.7362C199.642 100.212 199.333 81.8592 197.844 76.8025C196.314 71.6258 189.8 60.3674 180.497 54.8344Z" fill="#E9EDFB"/>
<path d="M197.206 93.706C197.206 93.706 197.075 93.1816 197.083 93.3938C197.166 95.6959 198.668 108.207 198.212 110.566C197.705 113.148 199.5 107.719 199.5 107.719L197.206 93.706Z" fill="#E9EDFB"/>
<path d="M174.752 69.5438C174.752 69.5438 184.261 99.7836 188.505 106.446C193.897 114.925 193.584 96.5686 192.095 91.516C190.569 86.3352 184.055 75.0809 174.752 69.5438Z" fill="#E9EDFB"/>
<path d="M191.46 108.436C191.46 108.436 191.326 107.911 191.334 108.123C191.417 110.421 192.919 123.337 192.459 125.707C191.952 128.29 193.988 122.356 193.988 122.356L191.46 108.436Z" fill="#E9EDFB"/>
<path d="M164.973 82.3596C164.973 82.3596 177.569 113.708 181.805 120.367C187.193 128.846 185.993 108.027 184.503 102.971C182.977 97.7938 174.277 87.8927 164.973 82.3596Z" fill="#E9EDFB"/>
<path d="M184.154 122.208C184.154 122.208 184.055 121.924 184.063 122.18C184.138 124.947 186.195 140.329 185.719 143.171C185.204 146.282 187.601 139.224 187.601 139.224L184.154 122.208Z" fill="#E9EDFB"/>
<path d="M152.374 98.4064C152.374 98.4064 157.489 109.717 164.038 119.225C168.44 125.631 174.34 130.64 176.559 132.994C183.568 140.453 177.605 120.963 175.129 116.243C172.589 111.418 162.656 102.35 152.374 98.4064Z" fill="#E9EDFB"/>
<path d="M179.316 134.307C179.316 134.307 179.217 134.023 179.225 134.279C179.301 137.05 181.484 153.669 180.874 156.496C180.731 157.164 182.894 151.451 182.894 151.451L179.316 134.307Z" fill="#E9EDFB"/>
<path d="M146.454 114.009C146.454 114.009 152.195 126.74 159.486 137.478C164.383 144.685 170.913 150.382 173.353 153.04C181.119 161.472 174.348 139.568 171.578 134.251C168.749 128.802 157.762 118.529 146.454 114.009Z" fill="#E9EDFB"/>
<path d="M133.914 139.776C133.914 139.776 147.104 147.624 156.419 155.014C167.351 163.686 169.288 164.671 172.541 165.74C182.843 169.115 167.39 148.044 162.723 144.977C157.945 141.834 145.598 138.455 133.914 139.776Z" fill="#E9EDFB"/>
<path d="M176.579 155.07C176.532 154.869 176.47 154.673 176.392 154.482C176.491 155.923 178.623 162.509 178.041 163.983C177.902 164.331 179.13 161.424 179.13 161.424L176.579 155.07Z" fill="#E9EDFB"/>
<path d="M174.613 165.056C174.613 165.056 174.411 164.703 174.423 164.767C174.534 165.48 176.729 168.735 176.159 169.46C176.024 169.632 177.228 168.198 177.228 168.198L174.613 165.056Z" fill="#E9EDFB"/>
<path d="M238.19 19.8903C238.19 19.8903 229.66 36.2733 225.579 39.8526C225.579 39.8526 228.011 29.2469 238.19 19.8903Z" fill="#E9EDFB"/>
<path d="M242.6 27.8055C242.6 27.8055 231.344 39.5523 227.35 40.9016C227.35 40.9016 232.489 31.581 242.6 27.8055Z" fill="#E9EDFB"/>
<path d="M233.032 12.2393C233.032 12.2393 230.258 33.0103 225.571 38.9638C225.571 38.9638 221.629 27.5013 233.032 12.2393Z" fill="#E9EDFB"/>
<path d="M242.553 35.3044C242.553 35.3044 228.986 50.7706 224.996 55.0306C224.057 56.0315 223.499 56.4278 223.221 56.4038C222.389 56.3277 224.069 52.4882 225.511 49.9699C227.437 46.6148 235.025 37.026 242.553 35.3044Z" fill="#E9EDFB"/>
<path d="M223.257 56.0715C223.257 56.0715 223.34 55.9954 223.257 56.1315C222.243 57.6049 216.074 66.5411 215.301 68.2026C214.453 70.0123 216.062 65.7284 216.062 65.7284L223.257 56.0715Z" fill="#E9EDFB"/>
<path d="M227.453 40.7374C227.453 40.7374 227.603 40.7054 227.56 40.7574C226.371 42.0867 222.805 48.2403 222.048 49.8938C221.201 51.7035 222.468 48.3444 222.468 48.3444L227.453 40.7374Z" fill="#E9EDFB"/>
<path d="M240.691 43.1196C240.691 43.1196 225.892 64.7395 221.038 68.9714C214.857 74.3523 221.256 62.1291 222.873 60.0632C224.489 57.9973 233.091 45.734 240.691 43.1196Z" fill="#E9EDFB"/>
<path d="M227.453 40.7374C227.453 40.7374 227.603 40.7054 227.56 40.7574C226.371 42.0867 222.805 48.2403 222.048 49.8938C221.201 51.7035 222.468 48.3444 222.468 48.3444L227.453 40.7374Z" fill="#E9EDFB"/>
<path d="M218.978 69.4278C218.978 69.4278 219.065 69.3397 218.978 69.4958C217.852 71.1413 211.022 81.1305 210.134 82.9642C209.167 84.9661 211.053 80.2377 211.053 80.2377L218.978 69.4278Z" fill="#E9EDFB"/>
<path d="M243.294 55.6351C243.294 55.6351 223.063 78.7363 217.223 82.9321C209.79 88.277 218.693 74.0119 220.82 71.8339C222.948 69.6559 235.25 57.4888 243.294 55.6351Z" fill="#E9EDFB"/>
<path d="M214.54 83.6969C214.54 83.6969 214.889 83.2965 214.77 83.4807C213.514 85.3184 206.105 95.0233 205.114 97.0692C204.036 99.3032 205.907 94.3987 205.907 94.3987L214.54 83.6969Z" fill="#E9EDFB"/>
<path d="M240.441 69.5319C240.441 69.5319 218.253 92.9454 212.202 97.4975C204.484 103.291 214.928 87.5364 218.582 83.5928C222.318 79.5531 232.211 71.6858 240.441 69.5319Z" fill="#E9EDFB"/>
<path d="M209.461 98.3783C209.461 98.3783 209.825 97.9779 209.702 98.1461C208.371 100.108 200.538 110.477 199.468 112.647C198.303 115.018 200.352 109.825 200.352 109.825L209.461 98.3783Z" fill="#E9EDFB"/>
<path d="M235.377 83.857C235.377 83.857 213.189 107.271 207.135 111.823C199.417 117.616 209.861 101.862 213.514 97.9179C217.254 93.8782 227.148 86.007 235.377 83.857Z" fill="#E9EDFB"/>
<path d="M204.393 112.704C204.393 112.704 204.762 112.303 204.639 112.471C203.303 114.433 195.244 125.163 194.175 127.333C193.01 129.703 195.209 124.006 195.209 124.006L204.393 112.704Z" fill="#E9EDFB"/>
<path d="M233.594 97.6857C233.594 97.6857 209.104 121.183 203.05 125.735C195.331 131.529 207.65 113.897 211.299 109.957C215.027 105.917 225.369 99.8316 233.594 97.6857Z" fill="#E9EDFB"/>
<path d="M200.716 126.66C200.716 126.66 200.926 126.44 200.78 126.66C199.195 129.03 189.448 141.722 188.101 144.317C186.647 147.143 189.289 140.373 189.289 140.373L200.716 126.66Z" fill="#E9EDFB"/>
<path d="M231.578 115.098C231.578 115.098 222.425 123.417 213.482 129.783C207.476 134.059 201.406 136.726 198.87 138.131C190.831 142.583 205.027 127.449 209.037 124.074C213.13 120.615 223.685 115.598 231.578 115.098Z" fill="#E9EDFB"/>
<path d="M196.607 138.471C196.607 138.471 196.821 138.255 196.675 138.471C195.09 140.841 184.578 154.57 183.33 157.18C183.037 157.801 185.038 152.256 185.038 152.256L196.607 138.471Z" fill="#E9EDFB"/>
<path d="M226.094 130.244C226.094 130.244 215.792 139.608 205.772 146.819C199.036 151.659 192.249 154.726 189.404 156.328C180.402 161.408 196.397 144.417 200.895 140.609C205.518 136.71 217.314 130.94 226.094 130.244Z" fill="#E9EDFB"/>
<path d="M218.586 156.035C218.586 156.035 206.921 159.078 197.645 162.842C186.765 167.246 185.145 167.542 182.752 167.542C175.18 167.542 195.502 153.725 199.789 152.396C204.183 151.015 212.88 151.587 218.586 156.035Z" fill="#E9EDFB"/>
<path d="M186.5 157.168C186.5 157.168 187.011 156.604 186.928 156.716C186.068 157.917 181.206 163.014 180.703 164.451C180.584 164.787 181.531 161.933 181.531 161.933L186.5 157.168Z" fill="#E9EDFB"/>
<path d="M181.991 166.349C181.991 166.349 182.3 166.096 182.26 166.153C181.797 166.733 178.766 168.923 178.694 169.712C178.694 169.9 178.813 168.319 178.813 168.319L181.991 166.349Z" fill="#E9EDFB"/>
<path d="M16.9742 72.2143L70.3447 207.503H66.9848L16.9742 72.2143Z" fill="#E9EDFB"/>
<path d="M16.5067 49.2412C16.5067 49.2412 19.4585 67.2858 16.9742 72.2143C16.9742 72.2143 10.6784 61.9128 16.5067 49.2412Z" fill="#E9EDFB"/>
<path d="M29.9623 54.1537C29.9623 54.1537 24.8313 69.3877 20.4531 72.3385C20.4333 72.3385 19.1574 61.9449 29.9623 54.1537Z" fill="#E9EDFB"/>
<path d="M2.23904 44.8892C2.23904 44.8892 17.327 64.1789 16.1542 71.4455C16.1542 71.4455 0.111354 63.238 2.23904 44.8892Z" fill="#E9EDFB"/>
<path d="M36.7574 60.6957C36.7574 60.6957 31.7611 80.1896 30.0217 85.6747C29.6255 86.9639 29.1897 87.5524 28.7736 87.6565C27.5335 87.9648 26.3963 83.877 26.1229 81.0424C25.7822 77.267 27.7118 65.5482 36.7574 60.6957Z" fill="#E9EDFB"/>
<path d="M28.5201 87.3442C28.5201 87.3442 28.5676 87.2441 28.5597 87.4042C28.4765 89.1378 27.9535 99.6595 28.3735 101.445C28.837 103.395 27.1848 98.9548 27.1848 98.9548L28.5201 87.3442Z" fill="#E9EDFB"/>
<path d="M20.4293 72.1543C20.4293 72.1543 20.6155 72.0542 20.5957 72.1182C20.14 73.8078 20.7581 80.7381 21.1781 82.5278C21.6377 84.4776 20.3579 80.9944 20.3579 80.9944L20.4293 72.1543Z" fill="#E9EDFB"/>
<path d="M41.2981 68.3147C41.2981 68.3147 40.2045 93.706 37.221 99.5514C33.4213 106.982 31.2778 93.5058 31.674 90.9835C32.0702 88.4612 32.9459 73.9799 41.2981 68.3147Z" fill="#E9EDFB"/>
<path d="M20.4293 72.1543C20.4293 72.1543 20.6155 72.0542 20.5957 72.1182C20.14 73.8078 20.7581 80.7381 21.1781 82.5278C21.6377 84.4776 20.3579 80.9944 20.3579 80.9944L20.4293 72.1543Z" fill="#E9EDFB"/>
<path d="M34.709 100.873C34.709 100.873 34.7566 100.757 34.7526 100.937C34.6734 102.87 34.1702 114.597 34.5981 116.587C35.0616 118.761 33.4094 113.813 33.4094 113.813L34.709 100.873Z" fill="#E9EDFB"/>
<path d="M56.3939 78.0436C56.3939 78.0436 48.9807 107.142 44.5827 113.396C38.9881 121.355 38.5008 104.988 39.5151 102.142C40.5294 99.2952 46.746 83.2364 56.3939 78.0436Z" fill="#E9EDFB"/>
<path d="M41.5199 115.262C41.5199 115.262 41.6586 114.769 41.6507 114.97C41.5596 117.128 39.9826 128.87 40.462 131.088C40.9851 133.511 39.1307 128.418 39.1307 128.418L41.5199 115.262Z" fill="#E9EDFB"/>
<path d="M65.0751 91.3959C65.0751 91.3959 55.2132 121.636 50.8113 128.298C45.2246 136.774 45.5455 118.421 47.0908 113.364C48.6836 108.187 55.4351 96.929 65.0751 91.3959Z" fill="#E9EDFB"/>
<path d="M47.7604 130.284C47.7604 130.284 47.8991 129.759 47.8912 129.971C47.804 132.273 46.2389 144.785 46.7223 147.143C47.2453 149.725 45.3871 144.296 45.3871 144.296L47.7604 130.284Z" fill="#E9EDFB"/>
<path d="M71.0343 106.117C71.0343 106.117 61.1685 136.357 56.7705 143.019C51.1838 151.499 51.5087 133.142 53.05 128.09C54.6388 122.897 61.3943 111.643 71.0343 106.117Z" fill="#E9EDFB"/>
<path d="M53.7195 144.997C53.7195 144.997 53.8542 144.473 53.8463 144.685C53.7591 146.983 52.202 159.899 52.6814 162.269C53.2084 164.851 51.0966 158.918 51.0966 158.918L53.7195 144.997Z" fill="#E9EDFB"/>
<path d="M81.1656 118.929C81.1656 118.929 68.1142 150.274 63.732 156.936C58.1453 165.416 59.3736 144.597 60.9347 139.54C62.5077 134.355 71.5256 124.454 81.1656 118.929Z" fill="#E9EDFB"/>
<path d="M61.2872 158.77C61.2872 158.77 61.3902 158.486 61.3823 158.742C61.307 161.508 59.1754 176.886 59.6627 179.733C60.1976 182.844 57.7173 175.785 57.7173 175.785L61.2872 158.77Z" fill="#E9EDFB"/>
<path d="M94.2249 134.968C94.2249 134.968 88.9235 146.278 82.1323 155.787C77.5758 162.193 71.4344 167.202 69.1601 169.556C61.8935 177.015 68.0745 157.525 70.642 152.804C73.2729 147.98 83.5666 138.912 94.2249 134.968Z" fill="#E9EDFB"/>
<path d="M66.3034 170.869C66.3034 170.869 66.4024 170.585 66.3945 170.841C66.3192 173.611 64.0568 190.231 64.6868 193.057C64.8374 193.726 62.5908 188.013 62.5908 188.013L66.3034 170.869Z" fill="#E9EDFB"/>
<path d="M100.358 150.558C100.358 150.558 94.4149 163.29 86.8511 174.028C81.7796 181.234 75.0122 186.932 72.4724 189.59C64.4213 198.022 71.4383 176.118 74.3109 170.801C77.2508 165.372 88.6381 155.098 100.358 150.558Z" fill="#E9EDFB"/>
<path d="M113.354 176.338C113.354 176.338 99.6886 184.185 90.0289 191.576C78.701 200.248 76.6961 201.233 73.3243 202.302C62.6265 205.677 78.6693 184.606 83.4992 181.539C88.4519 178.396 101.242 175.017 113.354 176.338Z" fill="#E9EDFB"/>
<path d="M69.1284 191.628C69.1284 191.628 69.3305 190.911 69.3226 191.043C69.2195 192.485 67.0087 199.051 67.6149 200.544C67.7575 200.893 66.4817 197.986 66.4817 197.986L69.1284 191.628Z" fill="#E9EDFB"/>
<path d="M71.1768 201.617C71.1768 201.617 71.3828 201.265 71.3749 201.329C71.256 202.041 68.9976 205.297 69.5761 206.021C69.7148 206.193 68.4667 204.76 68.4667 204.76L71.1768 201.617Z" fill="#E9EDFB"/>
<path d="M5.28979 56.4719C5.28979 56.4719 14.1294 72.8549 18.365 76.4342C18.357 76.4142 15.8529 65.8004 5.28979 56.4719Z" fill="#E9EDFB"/>
<path d="M0.717529 64.3671C0.717529 64.3671 12.3822 76.1139 16.5226 77.4632C16.5226 77.4632 11.1975 68.1426 0.717529 64.3671Z" fill="#E9EDFB"/>
<path d="M10.6348 48.8008C10.6348 48.8008 13.5034 69.5719 18.365 75.5254C18.365 75.5254 22.45 64.0789 10.6348 48.8008Z" fill="#E9EDFB"/>
<path d="M0.765015 71.866C0.765015 71.866 14.8268 87.3322 18.9633 91.5921C19.934 92.593 20.5125 92.9894 20.8017 92.9653C21.6655 92.8893 19.9221 89.0497 18.4244 86.5314C16.4315 83.1763 8.5705 73.5875 0.765015 71.866Z" fill="#E9EDFB"/>
<path d="M20.7661 92.621C20.7661 92.621 20.6829 92.5449 20.7661 92.6851C21.82 94.1584 28.211 103.095 29.0154 104.756C29.891 106.566 28.2229 102.278 28.2229 102.278L20.7661 92.621Z" fill="#E9EDFB"/>
<path d="M16.4315 77.291C16.4315 77.291 16.273 77.259 16.3205 77.311C17.5528 78.6402 21.2297 84.7939 22.034 86.4474C22.9097 88.2571 21.5982 84.898 21.5982 84.898L16.4315 77.291Z" fill="#E9EDFB"/>
<path d="M2.67871 79.6932C2.67871 79.6932 18.0163 101.313 23.0483 105.533C29.4551 110.914 22.8224 98.6906 21.1464 96.6247C19.4704 94.5588 10.5753 82.2956 2.67871 79.6932Z" fill="#E9EDFB"/>
<path d="M16.4315 77.291C16.4315 77.291 16.273 77.259 16.3205 77.311C17.5528 78.6402 21.2297 84.7939 22.034 86.4474C22.9097 88.2571 21.5982 84.898 21.5982 84.898L16.4315 77.291Z" fill="#E9EDFB"/>
<path d="M25.1998 105.989C25.1998 105.989 25.1087 105.901 25.1998 106.053C26.3647 107.703 33.4451 117.692 34.3643 119.526C35.3667 121.528 33.4134 116.799 33.4134 116.799L25.1998 105.989Z" fill="#E9EDFB"/>
<path d="M0.000488281 92.1967C0.000488281 92.1967 20.9683 115.294 27.0185 119.494C34.721 124.839 25.4931 110.574 23.2862 108.396C21.0792 106.218 8.33294 94.0504 0.000488281 92.1967Z" fill="#E9EDFB"/>
<path d="M29.7919 120.27C29.7919 120.27 29.4313 119.87 29.5502 120.054C30.8498 121.892 38.5324 131.597 39.5547 133.643C40.6759 135.877 38.7424 130.972 38.7424 130.972L29.7919 120.27Z" fill="#E9EDFB"/>
<path d="M2.96008 106.093C2.96008 106.093 25.9407 129.507 32.2247 134.059C40.2243 139.852 29.3997 124.098 25.6158 120.154C21.7368 116.127 11.4827 108.243 2.96008 106.093Z" fill="#E9EDFB"/>
<path d="M35.0537 134.944C35.0537 134.944 34.6773 134.544 34.8041 134.712C36.1829 136.674 44.3133 147.043 45.4068 149.213C46.6153 151.583 44.4955 146.39 44.4955 146.39L35.0537 134.944Z" fill="#E9EDFB"/>
<path d="M8.20605 120.419C8.20605 120.419 31.1867 143.832 37.4707 148.384C45.4703 154.178 34.6456 138.423 30.8618 134.479C26.9868 130.44 16.7327 122.569 8.20605 120.419Z" fill="#E9EDFB"/>
<path d="M40.3115 149.265C40.3115 149.265 39.9152 148.865 40.0618 149.033C41.4407 150.995 49.7969 161.72 50.9023 163.894C52.091 166.265 49.8325 160.567 49.8325 160.567L40.3115 149.265Z" fill="#E9EDFB"/>
<path d="M10.0485 134.247C10.0485 134.247 35.45 157.765 41.7181 162.297C49.7138 168.09 36.9635 150.458 33.1677 146.515C29.2927 142.479 18.5751 136.393 10.0485 134.247Z" fill="#E9EDFB"/>
<path d="M44.1271 163.222C44.1271 163.222 43.9052 163.002 44.0597 163.222C45.708 165.592 55.8036 178.284 57.1824 180.874C58.692 183.705 55.9661 176.934 55.9661 176.934L44.1271 163.222Z" fill="#E9EDFB"/>
<path d="M12.1564 151.659C12.1564 151.659 21.6418 159.979 30.9093 166.345C37.1299 170.621 43.4219 173.283 46.0528 174.692C54.3733 179.145 39.6697 164.011 35.5134 160.636C31.258 157.176 20.3224 152.16 12.1564 151.659Z" fill="#E9EDFB"/>
<path d="M48.3825 175.033C48.3825 175.033 48.1606 174.817 48.3151 175.033C49.9633 177.403 60.8514 191.131 62.1431 193.742C62.4482 194.362 60.372 188.817 60.372 188.817L48.3825 175.033Z" fill="#E9EDFB"/>
<path d="M17.8262 166.805C17.8262 166.805 28.4923 176.182 38.8851 183.388C45.8665 188.229 52.9033 191.296 55.8472 192.897C65.1662 197.97 48.6004 180.986 43.929 177.171C39.1466 173.271 26.9154 167.514 17.8262 166.805Z" fill="#E9EDFB"/>
<path d="M25.6039 192.597C25.6039 192.597 37.6925 195.64 47.3087 199.403C58.585 203.807 60.265 204.103 62.7611 204.103C70.6062 204.103 49.5513 190.287 45.1057 188.958C40.5333 187.576 31.5194 188.149 25.6039 192.597Z" fill="#E9EDFB"/>
<path d="M58.8585 193.73C58.7239 193.572 58.581 193.421 58.4305 193.278C59.326 194.479 64.3738 199.575 64.8849 201.009C65.0078 201.349 64.0251 198.494 64.0251 198.494L58.8585 193.73Z" fill="#E9EDFB"/>
<path d="M63.5298 202.906C63.5298 202.906 63.2089 202.658 63.2525 202.71C63.7319 203.295 66.8699 205.485 66.969 206.273C66.9888 206.462 66.8462 204.88 66.8462 204.88L63.5298 202.906Z" fill="#E9EDFB"/>
<path d="M237.152 101.201L187.688 203.735L190.232 203.959L237.152 101.201Z" fill="#BAC5F4"/>
<path d="M239.05 83.2205C239.05 83.2205 235.603 97.1733 237.152 101.201C237.152 101.201 242.608 93.5419 239.05 83.2205Z" fill="#BAC5F4"/>
<path d="M228.539 86.1832C228.539 86.1832 231.395 98.4665 234.525 101.069C234.525 101.069 236.19 93.0054 228.539 86.1832Z" fill="#BAC5F4"/>
<path d="M250.136 80.7542C250.136 80.7542 237.426 94.8791 237.826 100.652C237.826 100.652 250.513 95.2795 250.136 80.7542Z" fill="#BAC5F4"/>
<path d="M222.96 90.8594C222.96 90.8594 225.428 106.474 226.367 110.878C226.589 111.915 226.87 112.407 227.179 112.515C228.099 112.84 229.236 109.713 229.628 107.507C230.147 104.58 229.478 95.2675 222.96 90.8594Z" fill="#BAC5F4"/>
<path d="M227.401 112.299C227.401 112.299 227.374 112.215 227.366 112.343C227.314 113.708 227.001 121.996 226.573 123.365C226.094 124.863 227.643 121.492 227.643 121.492L227.401 112.299Z" fill="#BAC5F4"/>
<path d="M234.541 100.913C234.541 100.913 234.411 100.825 234.418 100.877C234.648 102.23 233.717 107.623 233.277 108.992C232.798 110.49 234.002 107.843 234.002 107.843L234.541 100.913Z" fill="#BAC5F4"/>
<path d="M219.014 96.5326C219.014 96.5326 218.134 116.519 220 121.295C222.377 127.373 224.905 116.947 224.778 114.945C224.652 112.944 224.949 101.529 219.014 96.5326Z" fill="#BAC5F4"/>
<path d="M234.541 100.913C234.541 100.913 234.411 100.825 234.418 100.877C234.648 102.23 233.717 107.623 233.277 108.992C232.798 110.49 234.002 107.843 234.002 107.843L234.541 100.913Z" fill="#BAC5F4"/>
<path d="M221.811 122.496C221.811 122.496 221.779 122.404 221.775 122.545C221.704 124.066 221.296 133.294 220.84 134.824C220.341 136.497 221.93 132.726 221.93 132.726L221.811 122.496Z" fill="#BAC5F4"/>
<path d="M206.941 103.163C206.941 103.163 210.59 126.468 213.498 131.661C217.199 138.271 218.649 125.467 218.09 123.173C217.532 120.879 213.886 107.875 206.941 103.163Z" fill="#BAC5F4"/>
<path d="M215.689 133.343C215.689 133.343 215.618 132.942 215.61 133.106C215.535 134.804 215.939 144.112 215.428 145.822C214.873 147.688 216.616 143.82 216.616 143.82L215.689 133.343Z" fill="#BAC5F4"/>
<path d="M199.484 113.056C199.484 113.056 204.916 137.418 207.804 142.931C211.462 149.946 212.448 135.536 211.62 131.469C210.744 127.305 206.394 118.032 199.484 113.056Z" fill="#BAC5F4"/>
<path d="M209.96 144.693C209.96 144.693 209.889 144.272 209.881 144.437C209.794 146.246 210.134 156.155 209.615 157.977C209.045 159.979 210.804 155.835 210.804 155.835L209.96 144.693Z" fill="#BAC5F4"/>
<path d="M193.98 124.194C193.98 124.194 199.409 148.556 202.301 154.069C205.958 161.088 206.949 146.675 206.121 142.611C205.253 138.443 200.898 129.175 193.98 124.194Z" fill="#BAC5F4"/>
<path d="M204.464 155.831C204.464 155.831 204.397 155.431 204.389 155.579C204.298 157.389 204.607 167.622 204.088 169.444C203.517 171.445 205.51 166.921 205.51 166.921L204.464 155.831Z" fill="#BAC5F4"/>
<path d="M185.454 133.571C185.454 133.571 193.22 159.01 196.092 164.527C199.749 171.541 200.205 155.138 199.377 151.071C198.529 146.907 192.372 138.547 185.454 133.571Z" fill="#BAC5F4"/>
<path d="M197.812 166.129C197.812 166.129 197.752 165.9 197.741 166.101C197.614 168.275 198.192 180.474 197.63 182.672C197.019 185.074 199.369 179.705 199.369 179.705L197.812 166.129Z" fill="#BAC5F4"/>
<path d="M174.495 145.285C174.495 145.285 177.743 154.494 182.241 162.421C185.26 167.734 189.555 172.078 191.132 174.076C196.128 180.402 192.76 164.715 191.132 160.864C189.468 156.876 182.292 149.085 174.495 145.285Z" fill="#BAC5F4"/>
<path d="M193.204 175.285C193.204 175.285 193.148 175.057 193.137 175.257C193.01 177.431 193.604 190.611 192.938 192.785C192.78 193.301 194.86 188.97 194.86 188.97L193.204 175.285Z" fill="#BAC5F4"/>
<path d="M168.805 157.116C168.805 157.116 172.45 167.49 177.446 176.41C180.798 182.415 185.537 187.308 187.28 189.562C192.804 196.705 188.968 179.068 187.15 174.708C185.291 170.24 177.367 161.44 168.805 157.116Z" fill="#BAC5F4"/>
<path d="M157.243 176.458C157.243 176.458 167.053 183.513 173.864 189.946C181.852 197.493 183.302 198.402 185.783 199.459C193.632 202.814 182.93 185.234 179.479 182.508C175.945 179.717 166.495 176.222 157.243 176.458Z" fill="#BAC5F4"/>
<path d="M189.666 191.372C189.641 191.212 189.606 191.054 189.559 190.899C189.559 192.036 190.747 197.345 190.212 198.458C190.078 198.722 191.239 196.532 191.239 196.532L189.666 191.372Z" fill="#BAC5F4"/>
<path d="M187.455 199.067C187.455 199.067 187.32 198.775 187.324 198.827C187.364 199.395 188.865 202.098 188.366 202.626C188.251 202.754 189.289 201.709 189.289 201.709L187.455 199.067Z" fill="#BAC5F4"/>
<path d="M247.05 89.6183C247.05 89.6183 239.26 101.878 235.825 104.4C235.825 104.4 238.428 96.2484 247.05 89.6183Z" fill="#BAC5F4"/>
<path d="M249.978 96.1083C249.978 96.1083 240.362 104.548 237.144 105.317C237.144 105.345 241.796 98.3904 249.978 96.1083Z" fill="#BAC5F4"/>
<path d="M243.52 83.2645C243.52 83.2645 239.954 99.3592 235.876 103.703C235.876 103.715 233.559 94.4467 243.52 83.2645Z" fill="#BAC5F4"/>
<path d="M249.439 102.002C249.439 102.002 237.759 113.212 234.347 116.263C233.555 116.983 233.079 117.256 232.861 117.216C232.216 117.104 233.788 114.205 235.092 112.331C236.827 109.833 243.417 102.834 249.439 102.002Z" fill="#BAC5F4"/>
<path d="M232.909 116.951C232.909 116.951 232.98 116.899 232.909 116.999C232.013 118.084 226.569 124.67 225.86 125.916C225.068 127.277 226.621 124.03 226.621 124.03L232.909 116.951Z" fill="#BAC5F4"/>
<path d="M237.232 105.225C237.232 105.225 237.354 105.225 237.315 105.249C236.296 106.21 233.099 110.79 232.378 112.035C231.585 113.392 232.814 110.834 232.814 110.834L237.232 105.225Z" fill="#BAC5F4"/>
<path d="M247.466 108.003C247.466 108.003 234.41 123.942 230.318 126.921C225.111 130.716 230.948 121.572 232.354 120.062C233.761 118.553 241.317 109.529 247.466 108.003Z" fill="#BAC5F4"/>
<path d="M237.232 105.225C237.232 105.225 237.354 105.225 237.315 105.249C236.296 106.21 233.099 110.79 232.378 112.035C231.585 113.392 232.814 110.834 232.814 110.834L237.232 105.225Z" fill="#BAC5F4"/>
<path d="M228.661 127.137C228.661 127.137 228.737 127.077 228.661 127.189C227.667 128.39 221.64 135.765 220.82 137.142C219.929 138.643 221.724 135.068 221.724 135.068L228.661 127.137Z" fill="#BAC5F4"/>
<path d="M248.651 117.992C248.651 117.992 231.237 134.716 226.375 137.61C220.19 141.29 228.13 130.716 229.941 129.155C231.752 127.593 242.224 118.893 248.651 117.992Z" fill="#BAC5F4"/>
<path d="M224.228 138.031C224.228 138.031 224.525 137.75 224.422 137.875C223.316 139.232 216.854 146.33 215.939 147.884C214.944 149.561 216.731 145.842 216.731 145.842L224.228 138.031Z" fill="#BAC5F4"/>
<path d="M245.481 128.694C245.481 128.694 226.522 145.51 221.462 148.68C215.02 152.684 224.267 141.074 227.405 138.215C230.599 135.304 238.884 129.811 245.481 128.694Z" fill="#BAC5F4"/>
<path d="M219.251 149.181C219.251 149.181 219.568 148.881 219.457 149.017C218.269 150.462 211.446 158.053 210.463 159.683C209.389 161.464 211.343 157.533 211.343 157.533L219.251 149.181Z" fill="#BAC5F4"/>
<path d="M240.548 139.576C240.548 139.576 221.589 156.412 216.529 159.563C210.087 163.566 219.334 151.956 222.472 149.101C225.666 146.19 233.955 140.693 240.548 139.576Z" fill="#BAC5F4"/>
<path d="M214.318 160.067C214.318 160.067 214.635 159.767 214.524 159.899C213.336 161.344 206.307 169.203 205.324 170.833C204.25 172.614 206.358 168.299 206.358 168.299L214.318 160.067Z" fill="#BAC5F4"/>
<path d="M238.222 150.294C238.222 150.294 217.44 167.037 212.381 170.192C205.942 174.196 216.779 161.224 219.909 158.385C223.11 155.475 231.629 151.411 238.222 150.294Z" fill="#BAC5F4"/>
<path d="M210.495 170.753C210.495 170.753 210.677 170.601 210.546 170.753C209.14 172.502 200.641 181.783 199.432 183.725C198.101 185.843 200.621 180.714 200.621 180.714L210.495 170.753Z" fill="#BAC5F4"/>
<path d="M235.46 163.806C230.577 167.488 225.512 170.917 220.285 174.08C215.293 177.019 210.352 178.692 208.268 179.621C201.667 182.56 213.815 171.67 217.187 169.295C220.638 166.869 229.248 163.658 235.46 163.806Z" fill="#BAC5F4"/>
<path d="M206.485 179.737C206.485 179.737 206.663 179.581 206.533 179.737C205.126 181.487 195.97 191.528 194.817 193.49C194.543 193.954 196.485 189.746 196.485 189.746L206.485 179.737Z" fill="#BAC5F4"/>
<path d="M230.155 175.305C230.155 175.305 221.438 181.943 213.118 186.916C207.511 190.247 201.984 192.184 199.646 193.249C192.249 196.613 205.93 184.389 209.718 181.711C213.585 178.984 223.229 175.261 230.155 175.305Z" fill="#BAC5F4"/>
<path d="M222.536 194.999C222.536 194.999 213.185 196.601 205.661 198.887C196.833 201.581 195.542 201.689 193.668 201.549C187.724 201.029 204.591 191.588 208.042 190.839C211.577 190.087 218.36 191.132 222.536 194.999Z" fill="#BAC5F4"/>
<path d="M197.301 193.698C197.418 193.584 197.541 193.475 197.669 193.374C196.912 194.266 192.76 197.918 192.269 199.011C192.154 199.267 193.089 197.093 193.089 197.093L197.301 193.698Z" fill="#BAC5F4"/>
<path d="M193.145 200.604C193.145 200.604 193.406 200.432 193.37 200.472C192.974 200.896 190.446 202.406 190.319 203.018C190.292 203.163 190.506 201.933 190.506 201.933L193.145 200.604Z" fill="#BAC5F4"/>
<path d="M178.635 0H78.1186C66.4246 0 56.9447 9.57916 56.9447 21.3956V227.441C56.9447 239.257 66.4246 248.837 78.1186 248.837H178.635C190.329 248.837 199.809 239.257 199.809 227.441V21.3956C199.809 9.57916 190.329 0 178.635 0Z" fill="#E1E6FB"/>
<path d="M179.146 9.71692H77.2271C69.4785 9.71692 63.197 16.0642 63.197 23.8939V227.477C63.197 235.307 69.4785 241.654 77.2271 241.654H179.146C186.895 241.654 193.176 235.307 193.176 227.477V23.8939C193.176 16.0642 186.895 9.71692 179.146 9.71692Z" fill="white"/>
<path d="M156.891 4.40009H97.1251C93.9194 4.40009 91.3206 7.02611 91.3206 10.2655V10.2695C91.3206 13.5088 93.9194 16.1349 97.1251 16.1349H156.891C160.096 16.1349 162.695 13.5088 162.695 10.2695V10.2655C162.695 7.02611 160.096 4.40009 156.891 4.40009Z" fill="#E1E6FB"/>
<path d="M141.03 5.41296H113.842C112.625 5.41296 111.639 6.4096 111.639 7.63901V7.64301C111.639 8.87242 112.625 9.86906 113.842 9.86906H141.03C142.247 9.86906 143.233 8.87242 143.233 7.64301V7.63901C143.233 6.4096 142.247 5.41296 141.03 5.41296Z" fill="white"/>
<path d="M178.322 39.4562H80.389C77.1919 39.4562 74.6002 42.075 74.6002 45.3055V66.7332C74.6002 69.9637 77.1919 72.5826 80.389 72.5826H178.322C181.519 72.5826 184.111 69.9637 184.111 66.7332V45.3055C184.111 42.075 181.519 39.4562 178.322 39.4562Z" fill="#393A10"/>
<path d="M91.2889 67.7142C97.8055 67.7142 103.088 62.3761 103.088 55.7912C103.088 49.2064 97.8055 43.8683 91.2889 43.8683C84.7723 43.8683 79.4895 49.2064 79.4895 55.7912C79.4895 62.3761 84.7723 67.7142 91.2889 67.7142Z" fill="#BAC5F4"/>
<path d="M172.819 44.9132H111.71C110.327 44.9132 109.206 46.0461 109.206 47.4435C109.206 48.841 110.327 49.9739 111.71 49.9739H172.819C174.201 49.9739 175.323 48.841 175.323 47.4435C175.323 46.0461 174.201 44.9132 172.819 44.9132Z" fill="#BAC5F4"/>
<path d="M158.792 53.321H111.71C110.327 53.321 109.206 54.4539 109.206 55.8513C109.206 57.2488 110.327 58.3816 111.71 58.3816H158.792C160.175 58.3816 161.297 57.2488 161.297 55.8513C161.297 54.4539 160.175 53.321 158.792 53.321Z" fill="#BAC5F4"/>
<path d="M122.788 62.6495H111.71C110.327 62.6495 109.206 63.7824 109.206 65.1799C109.206 66.5773 110.327 67.7102 111.71 67.7102H122.788C124.171 67.7102 125.292 66.5773 125.292 65.1799C125.292 63.7824 124.171 62.6495 122.788 62.6495Z" fill="#BAC5F4"/>
<path d="M178.322 124.919H80.389C77.1919 124.919 74.6002 127.538 74.6002 130.768V152.196C74.6002 155.426 77.1919 158.045 80.389 158.045H178.322C181.519 158.045 184.111 155.426 184.111 152.196V130.768C184.111 127.538 181.519 124.919 178.322 124.919Z" fill="#304D6D"/>
<path d="M91.2889 153.177C97.8055 153.177 103.088 147.839 103.088 141.254C103.088 134.669 97.8055 129.331 91.2889 129.331C84.7723 129.331 79.4895 134.669 79.4895 141.254C79.4895 147.839 84.7723 153.177 91.2889 153.177Z" fill="#BAC5F4"/>
<path d="M172.819 130.38H111.71C110.327 130.38 109.206 131.513 109.206 132.91C109.206 134.308 110.327 135.44 111.71 135.44H172.819C174.201 135.44 175.323 134.308 175.323 132.91C175.323 131.513 174.201 130.38 172.819 130.38Z" fill="#BAC5F4"/>
<path d="M158.792 138.787H111.71C110.327 138.787 109.206 139.92 109.206 141.318C109.206 142.715 110.327 143.848 111.71 143.848H158.792C160.175 143.848 161.297 142.715 161.297 141.318C161.297 139.92 160.175 138.787 158.792 138.787Z" fill="#BAC5F4"/>
<path d="M122.788 148.116H111.71C110.327 148.116 109.206 149.249 109.206 150.646C109.206 152.044 110.327 153.177 111.71 153.177H122.788C124.171 153.177 125.292 152.044 125.292 150.646C125.292 149.249 124.171 148.116 122.788 148.116Z" fill="#BAC5F4"/>
<path d="M178.322 165.452H80.389C77.1919 165.452 74.6002 168.071 74.6002 171.301V192.729C74.6002 195.96 77.1919 198.578 80.389 198.578H178.322C181.519 198.578 184.111 195.96 184.111 192.729V171.301C184.111 168.071 181.519 165.452 178.322 165.452Z" fill="#304D6D"/>
<path d="M91.2889 193.706C97.8055 193.706 103.088 188.368 103.088 181.783C103.088 175.198 97.8055 169.86 91.2889 169.86C84.7723 169.86 79.4895 175.198 79.4895 181.783C79.4895 188.368 84.7723 193.706 91.2889 193.706Z" fill="#BAC5F4"/>
<path d="M172.819 170.909H111.71C110.327 170.909 109.206 172.042 109.206 173.439C109.206 174.837 110.327 175.97 111.71 175.97H172.819C174.201 175.97 175.323 174.837 175.323 173.439C175.323 172.042 174.201 170.909 172.819 170.909Z" fill="#BAC5F4"/>
<path d="M158.792 179.317H111.71C110.327 179.317 109.206 180.45 109.206 181.847C109.206 183.244 110.327 184.377 111.71 184.377H158.792C160.175 184.377 161.297 183.244 161.297 181.847C161.297 180.45 160.175 179.317 158.792 179.317Z" fill="#BAC5F4"/>
<path d="M122.788 188.645H111.71C110.327 188.645 109.206 189.778 109.206 191.176C109.206 192.573 110.327 193.706 111.71 193.706H122.788C124.171 193.706 125.292 192.573 125.292 191.176C125.292 189.778 124.171 188.645 122.788 188.645Z" fill="#BAC5F4"/>
<path d="M152.675 85.3383H54.7417C51.5447 85.3383 48.953 87.9572 48.953 91.1877V112.615C48.953 115.846 51.5447 118.465 54.7417 118.465H152.675C155.872 118.465 158.464 115.846 158.464 112.615V91.1877C158.464 87.9572 155.872 85.3383 152.675 85.3383Z" fill="#F5F5FC"/>
<path d="M147.92 79.7332H49.9871C46.7901 79.7332 44.1984 82.3521 44.1984 85.5826V107.01C44.1984 110.241 46.7901 112.86 49.9871 112.86H147.92C151.117 112.86 153.709 110.241 153.709 107.01V85.5826C153.709 82.3521 151.117 79.7332 147.92 79.7332Z" fill="#FF6B6B"/>
<path d="M60.8871 107.991C67.4037 107.991 72.6865 102.653 72.6865 96.0682C72.6865 89.4833 67.4037 84.1453 60.8871 84.1453C54.3705 84.1453 49.0878 89.4833 49.0878 96.0682C49.0878 102.653 54.3705 107.991 60.8871 107.991Z" fill="white"/>
<path d="M142.417 85.1902H81.3082C79.9252 85.1902 78.8041 86.3231 78.8041 87.7206C78.8041 89.118 79.9252 90.2509 81.3082 90.2509H142.417C143.8 90.2509 144.921 89.118 144.921 87.7206C144.921 86.3231 143.8 85.1902 142.417 85.1902Z" fill="white"/>
<path d="M128.391 93.5979H81.3082C79.9252 93.5979 78.8041 94.7308 78.8041 96.1282C78.8041 97.5257 79.9252 98.6586 81.3082 98.6586H128.391C129.774 98.6586 130.895 97.5257 130.895 96.1282C130.895 94.7308 129.774 93.5979 128.391 93.5979Z" fill="white"/>
<path d="M92.3864 102.927H81.3082C79.9252 102.927 78.8041 104.059 78.8041 105.457C78.8041 106.854 79.9252 107.987 81.3082 107.987H92.3864C93.7694 107.987 94.8905 106.854 94.8905 105.457C94.8905 104.059 93.7694 102.927 92.3864 102.927Z" fill="white"/>
<path d="M114.008 318C113.106 318.029 112.219 317.764 111.478 317.243C110.737 316.722 110.182 315.974 109.895 315.109C109.396 313.503 109.418 311.777 109.959 310.185C111.092 306.67 114.258 298.666 116.243 293.534C116.603 292.656 117.213 291.906 117.995 291.379C118.777 290.851 119.696 290.57 120.637 290.571L228.511 289.37C228.511 289.37 234.624 288.737 234.89 294.775C235.155 300.812 235.068 311.59 235.068 311.59C235.068 311.59 235.884 315.714 230.163 315.81C226.387 315.866 130.645 317.684 114.008 318Z" fill="#BAC5F4"/>
<path d="M114.693 313.588C113.694 313.617 112.702 313.402 111.801 312.963C110.442 312.275 109.027 310.889 109.915 308.183C111.04 304.668 115.01 294.258 116.984 289.125C117.337 288.25 117.94 287.5 118.716 286.972C119.492 286.443 120.406 286.16 121.342 286.159L228.531 284.982C228.531 284.982 234.605 284.349 234.87 290.387C235.136 296.424 235.052 307.202 235.052 307.202C235.052 307.202 235.845 311.326 230.175 311.422C226.276 311.466 125.201 313.388 114.693 313.588Z" fill="#393A10"/>
<path d="M132.063 310.078C140.153 309.99 146.66 305.199 146.598 299.377C146.535 293.555 139.927 288.908 131.837 288.996C123.748 289.084 117.241 293.876 117.303 299.697C117.365 305.519 123.974 310.167 132.063 310.078Z" fill="white"/>
<path d="M224.543 289.324L154.519 290.09C153.392 290.102 152.489 291.036 152.501 292.174C152.513 293.313 153.437 294.226 154.563 294.214L224.587 293.448C225.714 293.436 226.617 292.503 226.605 291.364C226.593 290.225 225.669 289.312 224.543 289.324Z" fill="white"/>
<path d="M206.142 296.704L153.048 297.284C152.088 297.295 151.317 298.09 151.328 299.061C151.338 300.032 152.125 300.81 153.086 300.799L206.18 300.219C207.14 300.208 207.911 299.413 207.9 298.442C207.89 297.472 207.103 296.693 206.142 296.704Z" fill="white"/>
<path d="M171.158 305.714L151.752 305.926C150.967 305.935 150.337 306.585 150.345 307.379C150.354 308.173 150.997 308.809 151.783 308.801L171.188 308.588C171.974 308.58 172.604 307.929 172.595 307.136C172.587 306.342 171.943 305.705 171.158 305.714Z" fill="white"/>
<path d="M108.857 306.79C107.955 306.819 107.068 306.553 106.327 306.033C105.586 305.512 105.031 304.764 104.744 303.899C104.245 302.293 104.267 300.567 104.808 298.975C105.941 295.459 109.107 287.456 111.092 282.323C111.452 281.446 112.062 280.696 112.844 280.169C113.626 279.641 114.546 279.36 115.486 279.361L223.36 278.159C223.36 278.159 229.474 277.527 229.739 283.564C230.005 289.602 229.917 300.38 229.917 300.38C229.917 300.38 230.734 304.504 225.012 304.6C221.236 304.656 125.494 306.473 108.857 306.79Z" fill="#BAC5F4"/>
<path d="M109.543 302.378C108.543 302.406 107.551 302.192 106.65 301.753C105.291 301.064 103.877 299.679 104.764 296.973C105.889 293.457 109.86 283.048 111.833 277.915C112.186 277.039 112.789 276.29 113.565 275.761C114.341 275.233 115.255 274.95 116.191 274.949L223.38 273.771C223.38 273.771 229.454 273.139 229.719 279.176C229.985 285.214 229.902 295.992 229.902 295.992C229.902 295.992 230.694 300.116 225.024 300.212C221.125 300.256 120.05 302.177 109.543 302.378Z" fill="#304D6D"/>
<path d="M126.916 298.869C135.005 298.78 141.512 293.989 141.45 288.167C141.388 282.346 134.779 277.698 126.69 277.787C118.6 277.875 112.093 282.666 112.155 288.488C112.218 294.309 118.826 298.957 126.916 298.869Z" fill="white"/>
<path d="M219.395 278.115L149.371 278.881C148.245 278.893 147.341 279.826 147.353 280.965C147.365 282.104 148.289 283.017 149.416 283.004L219.439 282.239C220.566 282.226 221.469 281.293 221.457 280.155C221.445 279.016 220.522 278.103 219.395 278.115Z" fill="white"/>
<path d="M200.994 285.495L147.9 286.075C146.94 286.086 146.17 286.881 146.18 287.852C146.19 288.822 146.977 289.601 147.938 289.59L201.032 289.01C201.993 288.999 202.763 288.204 202.753 287.233C202.742 286.262 201.955 285.484 200.994 285.495Z" fill="white"/>
<path d="M166.006 294.504L146.6 294.717C145.815 294.725 145.185 295.376 145.193 296.169C145.202 296.963 145.846 297.6 146.631 297.591L166.037 297.379C166.822 297.37 167.452 296.72 167.444 295.926C167.435 295.132 166.791 294.496 166.006 294.504Z" fill="white"/>
<path d="M119.393 297.117C118.517 297.133 117.66 296.859 116.952 296.338C116.245 295.816 115.725 295.074 115.474 294.226C114.999 292.618 115.02 290.902 115.533 289.306C116.611 285.79 119.622 277.787 121.508 272.654C121.829 271.791 122.401 271.047 123.149 270.518C123.896 269.989 124.784 269.701 125.696 269.692L228.432 268.563C228.432 268.563 234.252 267.93 234.506 273.972C234.759 280.013 234.688 290.787 234.688 290.787C234.688 290.787 235.48 294.915 230.016 295.003C226.427 295.043 135.233 296.809 119.393 297.117Z" fill="#BAC5F4"/>
<path d="M120.042 292.689C119.08 292.723 118.125 292.506 117.269 292.06C115.977 291.371 114.646 289.99 115.47 287.284C116.54 283.769 120.316 273.359 122.206 268.226C122.521 267.365 123.087 266.621 123.83 266.093C124.573 265.564 125.458 265.276 126.366 265.268L228.44 264.143C228.44 264.143 234.224 263.51 234.478 269.551C234.731 275.593 234.66 286.367 234.66 286.367C234.66 286.367 235.453 290.495 230.02 290.583C226.304 290.639 130.051 292.509 120.042 292.689Z" fill="#FF6B6B"/>
<path d="M136.586 289.207C144.291 289.123 150.486 284.335 150.423 278.513C150.361 272.691 144.065 268.04 136.36 268.125C128.656 268.209 122.461 272.997 122.523 278.818C122.586 284.64 128.882 289.291 136.586 289.207Z" fill="white"/>
<path d="M224.549 268.502L158.06 269.23C156.933 269.242 156.029 270.175 156.042 271.314C156.054 272.452 156.977 273.365 158.104 273.353L224.593 272.626C225.72 272.614 226.624 271.681 226.612 270.542C226.6 269.403 225.676 268.49 224.549 268.502Z" fill="white"/>
<path d="M206.8 276.273L156.402 276.782C155.441 276.792 154.67 277.587 154.68 278.557C154.689 279.528 155.476 280.307 156.436 280.297L206.835 279.788C207.796 279.779 208.567 278.984 208.557 278.013C208.548 277.042 207.761 276.263 206.8 276.273Z" fill="white"/>
<path d="M173.747 284.86L155.399 285.06C154.614 285.069 153.984 285.719 153.993 286.513C154.001 287.307 154.645 287.943 155.43 287.935L173.778 287.734C174.564 287.726 175.193 287.075 175.185 286.281C175.176 285.488 174.533 284.851 173.747 284.86Z" fill="white"/>
<path d="M105.351 286.495C104.475 286.502 103.621 286.22 102.919 285.691C102.217 285.162 101.706 284.415 101.464 283.564C101.007 281.949 101.046 280.232 101.575 278.64C102.692 275.141 105.786 267.169 107.732 262.061C108.06 261.2 108.64 260.46 109.393 259.939C110.146 259.418 111.039 259.14 111.952 259.142H214.691C214.691 259.142 220.519 258.577 220.705 264.619C220.892 270.66 220.705 281.434 220.705 281.434C220.705 281.434 221.442 285.566 215.99 285.598C212.389 285.602 121.195 286.363 105.351 286.495Z" fill="#BAC5F4"/>
<path d="M106.048 282.091C105.091 282.111 104.145 281.885 103.298 281.434C102.01 280.73 100.695 279.332 101.547 276.63C102.656 273.131 106.547 262.761 108.477 257.653C108.801 256.794 109.375 256.056 110.124 255.535C110.872 255.014 111.76 254.734 112.669 254.734H214.75C214.75 254.734 220.543 254.169 220.729 260.211C220.915 266.252 220.729 277.026 220.729 277.026C220.729 277.026 221.458 281.158 216.046 281.19C212.325 281.198 116.056 282.007 106.048 282.091Z" fill="#FF6B6B"/>
<path d="M122.653 278.744C130.358 278.744 136.604 274.024 136.604 268.202C136.604 262.38 130.358 257.661 122.653 257.661C114.949 257.661 108.703 262.38 108.703 268.202C108.703 274.024 114.949 278.744 122.653 278.744Z" fill="white"/>
<path d="M210.832 259.002H144.338C143.211 259.002 142.298 259.925 142.298 261.064C142.298 262.202 143.211 263.126 144.338 263.126H210.832C211.959 263.126 212.872 262.202 212.872 261.064C212.872 259.925 211.959 259.002 210.832 259.002Z" fill="white"/>
<path d="M193.247 266.18H142.849C141.888 266.18 141.109 266.967 141.109 267.938C141.109 268.909 141.888 269.696 142.849 269.696H193.247C194.208 269.696 194.987 268.909 194.987 267.938C194.987 266.967 194.208 266.18 193.247 266.18Z" fill="white"/>
<path d="M159.858 274.808H141.509C140.724 274.808 140.087 275.452 140.087 276.246C140.087 277.04 140.724 277.683 141.509 277.683H159.858C160.644 277.683 161.281 277.04 161.281 276.246C161.281 275.452 160.644 274.808 159.858 274.808Z" fill="white"/>
</g>
<defs>
<clipPath id="clip0">
<rect width="272" height="318" fill="white"/>
</clipPath>
</defs>
</svg>
