<?xml version="1.0" encoding="UTF-8" standalone="no"?>
<!-- Created with Inkscape (http://www.inkscape.org/) -->

<svg
   width="218mm"
   height="52mm"
   viewBox="0 0 218 52"
   version="1.1"
   id="svg857"
   inkscape:version="1.1 (ce6663b3b7, 2021-05-25)"
   sodipodi:docname="cdnlogo_linkedin-learning.svg"
   xmlns:inkscape="http://www.inkscape.org/namespaces/inkscape"
   xmlns:sodipodi="http://sodipodi.sourceforge.net/DTD/sodipodi-0.dtd"
   xmlns="http://www.w3.org/2000/svg"
   xmlns:svg="http://www.w3.org/2000/svg">
  <sodipodi:namedview
     id="namedview859"
     pagecolor="#ffffff"
     bordercolor="#666666"
     borderopacity="1.0"
     inkscape:pageshadow="2"
     inkscape:pageopacity="0.0"
     inkscape:pagecheckerboard="0"
     inkscape:document-units="mm"
     showgrid="false"
     showguides="true"
     inkscape:zoom="0.69664703"
     inkscape:cx="132.77886"
     inkscape:cy="549.05854"
     inkscape:window-width="1864"
     inkscape:window-height="1016"
     inkscape:window-x="0"
     inkscape:window-y="0"
     inkscape:window-maximized="1"
     inkscape:current-layer="svg857" />
  <defs
     id="defs854" />
  <g
     style="clip-rule:evenodd;fill-rule:evenodd;image-rendering:optimizeQuality;shape-rendering:geometricPrecision;text-rendering:geometricPrecision"
     id="g1565"
     transform="matrix(0.04976661,0,0,0.04976661,-94.697943,-205.48916)">
    <path
       d="m 2829.19,4147.75 h -846.26 c -40.48,0 -73.34,32.08 -73.34,71.55 v 849.88 c 0,39.54 32.86,71.66 73.34,71.66 h 846.26 c 40.49,0 73.56,-32.11 73.56,-71.66 V 4219.3 c 0,-39.47 -33.07,-71.55 -73.56,-71.55 z"
       fill="#0078ad"
       fill-rule="nonzero"
       id="path2" />
    <path
       d="m 2130.47,4284.46 c 47.12,0 85.39,38.28 85.39,85.39 0,47.16 -38.27,85.44 -85.39,85.44 -47.19,0 -85.35,-38.28 -85.35,-85.44 0,-47.1 38.16,-85.39 85.35,-85.39 z m 166.07,235.61 h 141.3 v 64.74 h 2.02 c 19.67,-37.25 67.73,-76.56 139.38,-76.56 149.05,0 176.58,98.14 176.58,225.78 v 259.94 h -147.14 v -230.46 c 0,-54.97 -1.07,-125.65 -76.54,-125.65 -76.65,0 -88.35,59.86 -88.35,121.69 v 234.42 h -147.25 v -473.91 z m -239.74,0 h 147.36 v 473.91 H 2056.8 Z"
       fill="#fefefe"
       fill-rule="nonzero"
       id="path4" />
    <path
       id="path6"
       style="stroke-width:0.188094"
       transform="matrix(5.3164828,0,0,5.3164828,1909.59,1863.2021)"
       d="m 792.26562,480.08008 c -5.52996,0 -10.58845,0.99861 -15.18359,2.99804 -4.59326,1.99945 -8.52801,4.8914 -11.80273,8.67774 -3.27661,3.78634 -5.80686,8.35799 -7.59375,13.7168 -1.78502,5.3588 -2.67969,11.35622 -2.67969,17.99218 l -0.002,0.006 c 0,6.72061 0.87355,12.77958 2.61718,18.18164 1.74552,5.40019 4.19108,9.99484 7.33789,13.7793 3.1487,3.78634 6.95457,6.70137 11.41993,8.74219 4.46535,2.04082 9.37947,3.0625 14.73828,3.0625 5.52809,0 10.39794,-0.89467 14.60937,-2.67969 4.21143,-1.7869 7.63441,-4.08238 10.27149,-6.89062 v -33.30274 h -25.64649 v 4.97656 h 20.03125 v 26.15625 c -2.04082,2.04083 -4.72108,3.61471 -8.03906,4.72071 -3.3161,1.10599 -6.88908,1.66015 -10.7168,1.66015 -4.76254,0 -9.03781,-0.91586 -12.82226,-2.74414 -3.78634,-1.83015 -6.99769,-4.4046 -9.63477,-7.7207 -2.63708,-3.31798 -4.63429,-7.33743 -5.99609,-12.05859 -1.35992,-4.72117 -2.04102,-10.01435 -2.04102,-15.88477 0,-5.87042 0.72153,-11.14631 2.16797,-15.82422 1.44645,-4.67978 3.50911,-8.65496 6.18945,-11.92969 2.67847,-3.2766 5.93205,-5.80685 9.75977,-7.59375 3.8296,-1.78501 8.16656,-2.67773 13.01562,-2.67773 4.59515,0 8.42416,0.82922 11.48633,2.48633 3.06218,1.65711 5.69817,3.67927 7.91016,6.06054 l 3.44531,-3.82812 c -1.10411,-1.19064 -2.38168,-2.38358 -3.82812,-3.57422 -1.44645,-1.19252 -3.10503,-2.27582 -4.97657,-3.25391 -1.87153,-0.97809 -3.97651,-1.76506 -6.3164,-2.36132 -2.33989,-0.59626 -4.91246,-0.89258 -7.72071,-0.89258 z m -541.26757,1.5293 v 84.08789 h 44.53125 v -5.10352 h -38.66211 v -78.98437 z m 67.38672,0.002 v 84.08789 h 47.21289 v -5.10352 h -41.3418 v -37.0039 h 33.68555 v -5.10547 H 324.25586 V 486.7168 h 40.06641 v -5.10547 z m 91.35742,0 -29.73047,84.08789 h 6 l 9.82422,-28.83789 h 33.30273 l 9.82422,28.83789 h 6.25195 l -29.60156,-84.08789 z m 56.67187,0 v 84.08789 h 5.86719 v -38.66406 h 17.86328 l 22.71289,38.66406 h 0.002 6.76171 L 496.52734,526.6543 c 6.63409,-0.93671 11.89248,-3.30322 15.75782,-7.08203 3.86533,-3.7807 5.80468,-9.03721 5.80468,-15.75782 0,-3.99888 -0.66366,-7.40638 -1.97656,-10.20898 -1.3129,-2.80261 -3.19063,-5.10178 -5.61328,-6.88867 -2.42454,-1.7869 -5.3452,-3.08942 -8.74219,-3.89258 -3.39698,-0.80316 -7.1873,-1.21289 -11.35547,-1.21289 z m 78.85352,0 -0.002,0.002 v 84.08789 h 5.48829 v -52.18945 c 0,-4.07224 -0.0903,-8.06435 -0.25391,-11.92969 -0.16552,-3.86534 -0.34055,-7.84999 -0.51172,-11.93164 H 550.5 l 9.57031,16.7168 35.34375,59.33203 h 6.125 v -84.08789 h -5.48633 v 51.54883 c 0,4.0854 0.0922,8.17211 0.25586,12.25 0.16553,4.07788 0.34048,8.16835 0.50977,12.25 h -0.50977 l -9.57031,-16.71485 -35.3457,-59.33398 z m 87.76562,0 v 84.08789 h 5.86914 v -84.08789 z m 38.41992,0 v 0.002 84.08789 h 5.48633 v -52.18945 c 0,-4.07224 -0.0903,-8.06435 -0.25586,-11.92969 -0.16364,-3.86534 -0.3386,-7.84999 -0.50976,-11.93164 h 0.50976 l 9.57032,16.7168 35.3457,59.33203 h 6.12305 v -84.08789 h -5.48633 v 51.54883 c 0,4.0854 0.0903,8.17211 0.25586,12.25 0.16552,4.07788 0.3386,8.16835 0.50976,12.25 h -0.50976 l -9.57031,-16.71485 -35.34376,-59.33398 z m -199.17187,4.97656 h 16.58789 c 7.47487,0 13.20453,1.29688 17.16016,3.89258 3.95374,2.5957 5.93359,7.04035 5.93359,13.33398 0,6.209 -1.97985,10.82484 -5.93359,13.84375 -3.95563,3.01892 -9.67401,4.5293 -17.16016,4.5293 v 0.002 h -16.58789 z m -59.98437,0.50977 h 0.51171 c 1.44645,5.18764 2.9394,10.0862 4.46485,14.67382 1.52544,4.5895 3.13795,9.40533 4.84961,14.41993 l 5.35742,15.69336 h -29.85742 l 5.35937,-15.69336 c 1.7079,-5.00519 3.31852,-9.82666 4.84961,-14.41993 1.53109,-4.59326 3.0184,-9.4843 4.46485,-14.67382 z" />
  </g>
</svg>
