<svg width="414" height="1253" viewBox="0 0 414 1253" fill="none" xmlns="http://www.w3.org/2000/svg">
<g clip-path="url(#clip0)">
<path d="M207 1253L0 259.988V0H414V259.988L207 1253Z" fill="#61D095"/>
<path d="M23.7 312.618L5.77327 280.654H41.6267L23.7 312.618Z" fill="#61C891"/>
<path d="M132.7 312.618L114.773 280.654H150.627L132.7 312.618Z" fill="#61C891"/>
<path d="M391.7 312.618L373.773 280.654H409.627L391.7 312.618Z" fill="#61C891"/>
<path d="M169.7 312.618L151.773 280.654H187.627L169.7 312.618Z" fill="#61C891"/>
<path d="M243.7 312.618L225.773 280.654H261.627L243.7 312.618Z" fill="#61C891"/>
<path d="M280.7 312.618L262.773 280.654H298.627L280.7 312.618Z" fill="#61C891"/>
<path d="M206.7 312.618L188.773 280.654H224.627L206.7 312.618Z" fill="#61C891"/>
<path d="M317.7 312.618L299.773 280.654H335.627L317.7 312.618Z" fill="#61C891"/>
<path d="M354.7 312.618L336.773 280.654H372.627L354.7 312.618Z" fill="#61C891"/>
<path d="M60.2 312.618L42.7063 280.654H77.6937L60.2 312.618Z" fill="#61C891"/>
<path d="M96.2 312.618L78.7063 280.654H113.694L96.2 312.618Z" fill="#61C891"/>
<path d="M23.7 344.618L14.7366 328.636L11.5 312.654H41.6267L23.7 344.618Z" fill="#61C891"/>
<path d="M132.7 344.618L114.773 312.654H150.627L132.7 344.618Z" fill="#61C891"/>
<path d="M169.7 344.618L151.773 312.654H187.627L169.7 344.618Z" fill="#61C891"/>
<path d="M243.7 344.618L225.773 312.654H261.627L243.7 344.618Z" fill="#61C891"/>
<path d="M280.7 344.618L262.773 312.654H298.627L280.7 344.618Z" fill="#61C891"/>
<path d="M206.7 344.618L188.773 312.654H224.627L206.7 344.618Z" fill="#61C891"/>
<path d="M317.7 344.618L299.773 312.654H335.627L317.7 344.618Z" fill="#61C891"/>
<path d="M354.7 344.618L336.773 312.654H372.627L354.7 344.618Z" fill="#61C891"/>
<path d="M60.2 344.618L42.7063 312.654H77.6937L60.2 344.618Z" fill="#61C891"/>
<path d="M96.2 344.618L78.7063 312.654H113.694L96.2 344.618Z" fill="#61C891"/>
<path d="M24 374.5L23 370.5L18 344.654H41.6267L24 374.5Z" fill="#61C891"/>
<path d="M132.7 376.618L114.773 344.654H150.627L132.7 376.618Z" fill="#61C891"/>
<path d="M169.7 376.618L151.773 344.654H187.627L169.7 376.618Z" fill="#61C891"/>
<path d="M243.7 376.618L225.773 344.654H261.627L243.7 376.618Z" fill="#61C891"/>
<path d="M280.7 376.618L262.773 344.654H298.627L280.7 376.618Z" fill="#61C891"/>
<path d="M206.7 376.618L188.773 344.654H224.627L206.7 376.618Z" fill="#61C891"/>
<path d="M317.7 376.618L299.773 344.654H335.627L317.7 376.618Z" fill="#61C891"/>
<path d="M354.7 376.618L336.773 344.654H372.627L354.7 376.618Z" fill="#61C891"/>
<path d="M60.2 376.618L42.7063 344.654H77.6937L60.2 376.618Z" fill="#61C891"/>
<path d="M96.2 376.618L78.7063 344.654H113.694L96.2 376.618Z" fill="#61C891"/>
<path d="M132.7 407.618L114.773 375.654H150.627L132.7 407.618Z" fill="#61C891"/>
<path d="M169.7 407.618L151.773 375.654H187.627L169.7 407.618Z" fill="#61C891"/>
<path d="M243.7 407.618L225.773 375.654H261.627L243.7 407.618Z" fill="#61C891"/>
<path d="M280.7 407.618L262.773 375.654H298.627L280.7 407.618Z" fill="#61C891"/>
<path d="M206.7 407.618L188.773 375.654H224.627L206.7 407.618Z" fill="#61C891"/>
<path d="M317.7 407.618L299.773 375.654H335.627L317.7 407.618Z" fill="#61C891"/>
<path d="M354.7 407.618L336.773 375.654H372.627L354.7 407.618Z" fill="#61C891"/>
<path d="M60.2 407.618L42.7063 375.654H77.6937L60.2 407.618Z" fill="#61C891"/>
<path d="M96.2 407.618L78.7063 375.654H113.694L96.2 407.618Z" fill="#61C891"/>
<path d="M132.7 439.618L114.773 407.654H150.627L132.7 439.618Z" fill="#61C891"/>
<path d="M169.7 439.618L151.773 407.654H187.627L169.7 439.618Z" fill="#61C891"/>
<path d="M243.7 439.618L225.773 407.654H261.627L243.7 439.618Z" fill="#61C891"/>
<path d="M280.7 439.618L262.773 407.654H298.627L280.7 439.618Z" fill="#61C891"/>
<path d="M206.7 439.618L188.773 407.654H224.627L206.7 439.618Z" fill="#61C891"/>
<path d="M317.7 439.618L299.773 407.654H335.627L317.7 439.618Z" fill="#61C891"/>
<path d="M354.7 439.618L336.773 407.654H372.627L354.7 439.618Z" fill="#61C891"/>
<path d="M60.2 439.618L42.7063 407.654H77.6937L60.2 439.618Z" fill="#61C891"/>
<path d="M96.2 439.618L78.7063 407.654H113.694L96.2 439.618Z" fill="#61C891"/>
<path d="M132.7 471.618L114.773 439.654H150.627L132.7 471.618Z" fill="#61C891"/>
<path d="M169.7 471.618L151.773 439.654H187.627L169.7 471.618Z" fill="#61C891"/>
<path d="M243.7 471.618L225.773 439.654H261.627L243.7 471.618Z" fill="#61C891"/>
<path d="M280.7 471.618L262.773 439.654H298.627L280.7 471.618Z" fill="#61C891"/>
<path d="M206.7 471.618L188.773 439.654H224.627L206.7 471.618Z" fill="#61C891"/>
<path d="M317.7 471.618L299.773 439.654H335.627L317.7 471.618Z" fill="#61C891"/>
<path d="M354.7 471.618L336.773 439.654H372.627L354.7 471.618Z" fill="#61C891"/>
<path d="M60.2 471.618L42.7063 439.654H77.6937L60.2 471.618Z" fill="#61C891"/>
<path d="M96.2 471.618L78.7063 439.654H113.694L96.2 471.618Z" fill="#61C891"/>
<path d="M132.7 504.618L114.773 471.904H150.627L132.7 504.618Z" fill="#61C891"/>
<path d="M169.7 504.618L151.773 471.904H187.627L169.7 504.618Z" fill="#61C891"/>
<path d="M243.7 504.618L225.773 471.904H261.627L243.7 504.618Z" fill="#61C891"/>
<path d="M280.7 504.618L262.773 471.904H298.627L280.7 504.618Z" fill="#61C891"/>
<path d="M206.7 504.618L188.773 471.904H224.627L206.7 504.618Z" fill="#61C891"/>
<path d="M317.7 504.618L299.773 471.904H335.627L317.7 504.618Z" fill="#61C891"/>
<path d="M96.2 504.618L78.7063 471.904H113.694L96.2 504.618Z" fill="#61C891"/>
<path d="M132.7 536.618L114.773 504.654H150.627L132.7 536.618Z" fill="#61C891"/>
<path d="M169.7 536.618L151.773 504.654H187.627L169.7 536.618Z" fill="#61C891"/>
<path d="M243.7 536.618L225.773 504.654H261.627L243.7 536.618Z" fill="#61C891"/>
<path d="M280.7 536.618L262.773 504.654H298.627L280.7 536.618Z" fill="#61C891"/>
<path d="M206.7 536.618L188.773 504.654H224.627L206.7 536.618Z" fill="#61C891"/>
<path d="M317.7 536.618L299.773 504.654H335.627L317.7 536.618Z" fill="#61C891"/>
<path d="M96.2 536.618L78.7063 504.654H113.694L96.2 536.618Z" fill="#61C891"/>
<path d="M132.7 568.618L114.773 536.654H150.627L132.7 568.618Z" fill="#61C891"/>
<path d="M169.7 568.618L151.773 536.654H187.627L169.7 568.618Z" fill="#61C891"/>
<path d="M243.7 568.618L225.773 536.654H261.627L243.7 568.618Z" fill="#61C891"/>
<path d="M280.7 568.618L262.773 536.654H298.627L280.7 568.618Z" fill="#61C891"/>
<path d="M206.7 568.618L188.773 536.654H224.627L206.7 568.618Z" fill="#61C891"/>
<path d="M317.7 568.618L299.773 536.654H335.627L317.7 568.618Z" fill="#61C891"/>
<path d="M96.2 568.618L78.7063 536.654H113.694L96.2 568.618Z" fill="#61C891"/>
<path d="M132.7 600.618L114.773 568.654H150.627L132.7 600.618Z" fill="#61C891"/>
<path d="M169.7 600.618L151.773 568.654H187.627L169.7 600.618Z" fill="#61C891"/>
<path d="M243.7 600.618L225.773 568.654H261.627L243.7 600.618Z" fill="#61C891"/>
<path d="M280.7 600.618L262.773 568.654H298.627L280.7 600.618Z" fill="#61C891"/>
<path d="M206.7 600.618L188.773 568.654H224.627L206.7 600.618Z" fill="#61C891"/>
<path d="M317.7 600.618L299.773 568.654H335.627L317.7 600.618Z" fill="#61C891"/>
<path d="M96.2 600.618L78.7063 568.654H113.694L96.2 600.618Z" fill="#61C891"/>
<path d="M132.7 632.618L114.773 600.654H150.627L132.7 632.618Z" fill="#61C891"/>
<path d="M169.7 632.618L151.773 600.654H187.627L169.7 632.618Z" fill="#61C891"/>
<path d="M243.7 632.618L225.773 600.654H261.627L243.7 632.618Z" fill="#61C891"/>
<path d="M280.7 632.618L262.773 600.654H298.627L280.7 632.618Z" fill="#61C891"/>
<path d="M206.7 632.618L188.773 600.654H224.627L206.7 632.618Z" fill="#61C891"/>
<path d="M317.7 632.618L299.773 600.654H335.627L317.7 632.618Z" fill="#61C891"/>
<path d="M96.2 632.618L78.7063 600.654H113.694L96.2 632.618Z" fill="#61C891"/>
<path d="M132.7 664.618L114.773 632.654H150.627L132.7 664.618Z" fill="#61C891"/>
<path d="M169.7 664.618L151.773 632.654H187.627L169.7 664.618Z" fill="#61C891"/>
<path d="M243.7 664.618L225.773 632.654H261.627L243.7 664.618Z" fill="#61C891"/>
<path d="M280.7 664.618L262.773 632.654H298.627L280.7 664.618Z" fill="#61C891"/>
<path d="M206.7 664.618L188.773 632.654H224.627L206.7 664.618Z" fill="#61C891"/>
<path d="M317.7 664.618L299.773 632.654H335.627L317.7 664.618Z" fill="#61C891"/>
<path d="M96.2 664.618L78.7063 632.654H113.694L96.2 664.618Z" fill="#61C891"/>
<path d="M132.7 696.618L114.773 664.654H150.627L132.7 696.618Z" fill="#61C891"/>
<path d="M169.7 696.618L151.773 664.654H187.627L169.7 696.618Z" fill="#61C891"/>
<path d="M243.7 696.618L225.773 664.654H261.627L243.7 696.618Z" fill="#61C891"/>
<path d="M280.7 696.618L262.773 664.654H298.627L280.7 696.618Z" fill="#61C891"/>
<path d="M206.7 696.618L188.773 664.654H224.627L206.7 696.618Z" fill="#61C891"/>
<path d="M132.7 727.618L114.773 695.654H150.627L132.7 727.618Z" fill="#61C891"/>
<path d="M169.7 727.618L151.773 695.654H187.627L169.7 727.618Z" fill="#61C891"/>
<path d="M243.7 727.618L225.773 695.654H261.627L243.7 727.618Z" fill="#61C891"/>
<path d="M280.7 727.618L262.773 695.654H298.627L280.7 727.618Z" fill="#61C891"/>
<path d="M206.7 727.618L188.773 695.654H224.627L206.7 727.618Z" fill="#61C891"/>
<path d="M132.7 759.618L114.773 727.654H150.627L132.7 759.618Z" fill="#61C891"/>
<path d="M169.7 759.618L151.773 727.654H187.627L169.7 759.618Z" fill="#61C891"/>
<path d="M243.7 759.618L225.773 727.654H261.627L243.7 759.618Z" fill="#61C891"/>
<path d="M280.7 759.618L262.773 727.654H298.627L280.7 759.618Z" fill="#61C891"/>
<path d="M206.7 759.618L188.773 727.654H224.627L206.7 759.618Z" fill="#61C891"/>
<path d="M132.7 791.618L114.773 759.654H150.627L132.7 791.618Z" fill="#61C891"/>
<path d="M169.7 791.618L151.773 759.654H187.627L169.7 791.618Z" fill="#61C891"/>
<path d="M243.7 791.618L225.773 759.654H261.627L243.7 791.618Z" fill="#61C891"/>
<path d="M280.7 791.618L262.773 759.654H298.627L280.7 791.618Z" fill="#61C891"/>
<path d="M206.7 791.618L188.773 759.654H224.627L206.7 791.618Z" fill="#61C891"/>
<path d="M132.7 824.618L114.773 791.904H150.627L132.7 824.618Z" fill="#61C891"/>
<path d="M169.7 824.618L151.773 791.904H187.627L169.7 824.618Z" fill="#61C891"/>
<path d="M243.7 824.618L225.773 791.904H261.627L243.7 824.618Z" fill="#61C891"/>
<path d="M280.7 824.618L262.773 791.904H298.627L280.7 824.618Z" fill="#61C891"/>
<path d="M206.7 824.618L188.773 791.904H224.627L206.7 824.618Z" fill="#61C891"/>
<path d="M169.7 856.618L151.773 824.654H187.627L169.7 856.618Z" fill="#61C891"/>
<path d="M243.7 856.618L225.773 824.654H261.627L243.7 856.618Z" fill="#61C891"/>
<path d="M206.7 856.618L188.773 824.654H224.627L206.7 856.618Z" fill="#61C891"/>
<path d="M169.7 888.618L151.773 856.654H187.627L169.7 888.618Z" fill="#61C891"/>
<path d="M243.7 888.618L225.773 856.654H261.627L243.7 888.618Z" fill="#61C891"/>
<path d="M206.7 888.618L188.773 856.654H224.627L206.7 888.618Z" fill="#61C891"/>
<path d="M169.7 920.618L151.773 888.654H187.627L169.7 920.618Z" fill="#61C891"/>
<path d="M243.7 920.618L225.773 888.654H261.627L243.7 920.618Z" fill="#61C891"/>
<path d="M206.7 920.618L188.773 888.654H224.627L206.7 920.618Z" fill="#61C891"/>
<path d="M141 934L138 919.654H150.627L141 934Z" fill="#61C891"/>
<path d="M169.7 951.618L151.773 919.654H187.627L169.7 951.618Z" fill="#61C891"/>
<path d="M243.7 951.618L225.773 919.654H261.627L243.7 951.618Z" fill="#61C891"/>
<path d="M206.7 951.618L188.773 919.654H224.627L206.7 951.618Z" fill="#61C891"/>
<path d="M169.7 983.618L151.773 951.654H187.627L169.7 983.618Z" fill="#61C891"/>
<path d="M243.7 983.618L225.773 951.654H261.627L243.7 983.618Z" fill="#61C891"/>
<path d="M206.7 983.618L188.773 951.654H224.627L206.7 983.618Z" fill="#61C891"/>
<path d="M169.7 1015.62L151.773 983.654H187.627L169.7 1015.62Z" fill="#61C891"/>
<path d="M243.7 1015.62L225.773 983.654H261.627L243.7 1015.62Z" fill="#61C891"/>
<path d="M206.7 1015.62L188.773 983.654H224.627L206.7 1015.62Z" fill="#61C891"/>
<path d="M206.7 1046.62L188.773 1014.65H224.627L206.7 1046.62Z" fill="#61C891"/>
<path d="M206.7 1078.62L188.773 1046.65H224.627L206.7 1078.62Z" fill="#61C891"/>
<path d="M206.7 1110.62L188.773 1078.65H224.627L206.7 1110.62Z" fill="#61C891"/>
<path d="M206.7 1143.62L188.773 1110.9H224.627L206.7 1143.62Z" fill="#61C891"/>
<path d="M206.7 1175.62L188.773 1143.65H224.627L206.7 1175.62Z" fill="#61C891"/>
<path d="M23.7 25.6177L5.77327 -6.34556L41.6267 -6.34556L23.7 25.6177Z" fill="#61C891"/>
<path d="M132.7 25.6177L114.773 -6.34556L150.627 -6.34556L132.7 25.6177Z" fill="#61C891"/>
<path d="M391.7 25.6177L373.773 -6.34556L409.627 -6.34556L391.7 25.6177Z" fill="#61C891"/>
<path d="M169.7 25.6177L151.773 -6.34556L187.627 -6.34556L169.7 25.6177Z" fill="#61C891"/>
<path d="M243.7 25.6177L225.773 -6.34556L261.627 -6.34556L243.7 25.6177Z" fill="#61C891"/>
<path d="M280.7 25.6177L262.773 -6.34556L298.627 -6.34556L280.7 25.6177Z" fill="#61C891"/>
<path d="M206.7 25.6177L188.773 -6.34556L224.627 -6.34556L206.7 25.6177Z" fill="#61C891"/>
<path d="M317.7 25.6177L299.773 -6.34556L335.627 -6.34556L317.7 25.6177Z" fill="#61C891"/>
<path d="M354.7 25.6177L336.773 -6.34556L372.627 -6.34556L354.7 25.6177Z" fill="#61C891"/>
<path d="M60.2 25.6177L42.7063 -6.34556L77.6937 -6.34556L60.2 25.6177Z" fill="#61C891"/>
<path d="M96.2 25.6177L78.7063 -6.34556L113.694 -6.34556L96.2 25.6177Z" fill="#61C891"/>
<path d="M23.7 57.6177L5.77327 25.6544L41.6267 25.6544L23.7 57.6177Z" fill="#61C891"/>
<path d="M132.7 57.6177L114.773 25.6544L150.627 25.6544L132.7 57.6177Z" fill="#61C891"/>
<path d="M391.7 57.6177L373.773 25.6544L409.627 25.6544L391.7 57.6177Z" fill="#61C891"/>
<path d="M169.7 57.6177L151.773 25.6544L187.627 25.6544L169.7 57.6177Z" fill="#61C891"/>
<path d="M243.7 57.6177L225.773 25.6544L261.627 25.6544L243.7 57.6177Z" fill="#61C891"/>
<path d="M280.7 57.6177L262.773 25.6544L298.627 25.6544L280.7 57.6177Z" fill="#61C891"/>
<path d="M206.7 57.6177L188.773 25.6544L224.627 25.6544L206.7 57.6177Z" fill="#61C891"/>
<path d="M317.7 57.6177L299.773 25.6544L335.627 25.6544L317.7 57.6177Z" fill="#61C891"/>
<path d="M354.7 57.6177L336.773 25.6544L372.627 25.6544L354.7 57.6177Z" fill="#61C891"/>
<path d="M60.2 57.6177L42.7063 25.6544L77.6937 25.6544L60.2 57.6177Z" fill="#61C891"/>
<path d="M96.2 57.6177L78.7063 25.6544L113.694 25.6544L96.2 57.6177Z" fill="#61C891"/>
<path d="M23.7 88.6177L5.77327 56.6544H41.6267L23.7 88.6177Z" fill="#61C891"/>
<path d="M132.7 88.6177L114.773 56.6544H150.627L132.7 88.6177Z" fill="#61C891"/>
<path d="M391.7 88.6177L373.773 56.6544H409.627L391.7 88.6177Z" fill="#61C891"/>
<path d="M169.7 88.6177L151.773 56.6544H187.627L169.7 88.6177Z" fill="#61C891"/>
<path d="M243.7 88.6177L225.773 56.6544H261.627L243.7 88.6177Z" fill="#61C891"/>
<path d="M280.7 88.6177L262.773 56.6544H298.627L280.7 88.6177Z" fill="#61C891"/>
<path d="M206.7 88.6177L188.773 56.6544H224.627L206.7 88.6177Z" fill="#61C891"/>
<path d="M317.7 88.6177L299.773 56.6544H335.627L317.7 88.6177Z" fill="#61C891"/>
<path d="M354.7 88.6177L336.773 56.6544H372.627L354.7 88.6177Z" fill="#61C891"/>
<path d="M60.2 88.6177L42.7063 56.6544H77.6937L60.2 88.6177Z" fill="#61C891"/>
<path d="M96.2 88.6177L78.7063 56.6544H113.694L96.2 88.6177Z" fill="#61C891"/>
<path d="M23.7 120.618L5.77327 88.6544H41.6267L23.7 120.618Z" fill="#61C891"/>
<path d="M132.7 120.618L114.773 88.6544H150.627L132.7 120.618Z" fill="#61C891"/>
<path d="M391.7 120.618L373.773 88.6544H409.627L391.7 120.618Z" fill="#61C891"/>
<path d="M169.7 120.618L151.773 88.6544H187.627L169.7 120.618Z" fill="#61C891"/>
<path d="M243.7 120.618L225.773 88.6544H261.627L243.7 120.618Z" fill="#61C891"/>
<path d="M280.7 120.618L262.773 88.6544H298.627L280.7 120.618Z" fill="#61C891"/>
<path d="M206.7 120.618L188.773 88.6544H224.627L206.7 120.618Z" fill="#61C891"/>
<path d="M317.7 120.618L299.773 88.6544H335.627L317.7 120.618Z" fill="#61C891"/>
<path d="M354.7 120.618L336.773 88.6544H372.627L354.7 120.618Z" fill="#61C891"/>
<path d="M60.2 120.618L42.7063 88.6544H77.6937L60.2 120.618Z" fill="#61C891"/>
<path d="M96.2 120.618L78.7063 88.6544H113.694L96.2 120.618Z" fill="#61C891"/>
<path d="M23.7 152.618L5.77327 120.654H41.6267L23.7 152.618Z" fill="#61C891"/>
<path d="M132.7 152.618L114.773 120.654H150.627L132.7 152.618Z" fill="#61C891"/>
<path d="M391.7 152.618L373.773 120.654H409.627L391.7 152.618Z" fill="#61C891"/>
<path d="M169.7 152.618L151.773 120.654H187.627L169.7 152.618Z" fill="#61C891"/>
<path d="M243.7 152.618L225.773 120.654H261.627L243.7 152.618Z" fill="#61C891"/>
<path d="M280.7 152.618L262.773 120.654H298.627L280.7 152.618Z" fill="#61C891"/>
<path d="M206.7 152.618L188.773 120.654H224.627L206.7 152.618Z" fill="#61C891"/>
<path d="M317.7 152.618L299.773 120.654H335.627L317.7 152.618Z" fill="#61C891"/>
<path d="M354.7 152.618L336.773 120.654H372.627L354.7 152.618Z" fill="#61C891"/>
<path d="M60.2 152.618L42.7063 120.654H77.6937L60.2 152.618Z" fill="#61C891"/>
<path d="M96.2 152.618L78.7063 120.654H113.694L96.2 152.618Z" fill="#61C891"/>
<path d="M23.7 185.618L5.77327 152.904H41.6267L23.7 185.618Z" fill="#61C891"/>
<path d="M132.7 185.618L114.773 152.904H150.627L132.7 185.618Z" fill="#61C891"/>
<path d="M391.7 185.618L373.773 152.904H409.627L391.7 185.618Z" fill="#61C891"/>
<path d="M169.7 185.618L151.773 152.904H187.627L169.7 185.618Z" fill="#61C891"/>
<path d="M243.7 185.618L225.773 152.904H261.627L243.7 185.618Z" fill="#61C891"/>
<path d="M280.7 185.618L262.773 152.904H298.627L280.7 185.618Z" fill="#61C891"/>
<path d="M206.7 185.618L188.773 152.904H224.627L206.7 185.618Z" fill="#61C891"/>
<path d="M317.7 185.618L299.773 152.904H335.627L317.7 185.618Z" fill="#61C891"/>
<path d="M354.7 185.618L336.773 152.904H372.627L354.7 185.618Z" fill="#61C891"/>
<path d="M60.2 185.618L42.7063 152.904H77.6937L60.2 185.618Z" fill="#61C891"/>
<path d="M96.2 185.618L78.7063 152.904H113.694L96.2 185.618Z" fill="#61C891"/>
<path d="M23.7 217.618L5.77327 185.654H41.6267L23.7 217.618Z" fill="#61C891"/>
<path d="M132.7 217.618L114.773 185.654H150.627L132.7 217.618Z" fill="#61C891"/>
<path d="M391.7 217.618L373.773 185.654H409.627L391.7 217.618Z" fill="#61C891"/>
<path d="M169.7 217.618L151.773 185.654H187.627L169.7 217.618Z" fill="#61C891"/>
<path d="M243.7 217.618L225.773 185.654H261.627L243.7 217.618Z" fill="#61C891"/>
<path d="M280.7 217.618L262.773 185.654H298.627L280.7 217.618Z" fill="#61C891"/>
<path d="M206.7 217.618L188.773 185.654H224.627L206.7 217.618Z" fill="#61C891"/>
<path d="M317.7 217.618L299.773 185.654H335.627L317.7 217.618Z" fill="#61C891"/>
<path d="M354.7 217.618L336.773 185.654H372.627L354.7 217.618Z" fill="#61C891"/>
<path d="M60.2 217.618L42.7063 185.654H77.6937L60.2 217.618Z" fill="#61C891"/>
<path d="M96.2 217.618L78.7063 185.654H113.694L96.2 217.618Z" fill="#61C891"/>
<path d="M23.7 249.618L5.77327 217.654H41.6267L23.7 249.618Z" fill="#61C891"/>
<path d="M132.7 249.618L114.773 217.654H150.627L132.7 249.618Z" fill="#61C891"/>
<path d="M391.7 249.618L373.773 217.654H409.627L391.7 249.618Z" fill="#61C891"/>
<path d="M169.7 249.618L151.773 217.654H187.627L169.7 249.618Z" fill="#61C891"/>
<path d="M243.7 249.618L225.773 217.654H261.627L243.7 249.618Z" fill="#61C891"/>
<path d="M280.7 249.618L262.773 217.654H298.627L280.7 249.618Z" fill="#61C891"/>
<path d="M206.7 249.618L188.773 217.654H224.627L206.7 249.618Z" fill="#61C891"/>
<path d="M317.7 249.618L299.773 217.654H335.627L317.7 249.618Z" fill="#61C891"/>
<path d="M354.7 249.618L336.773 217.654H372.627L354.7 249.618Z" fill="#61C891"/>
<path d="M60.2 249.618L42.7063 217.654H77.6937L60.2 249.618Z" fill="#61C891"/>
<path d="M96.2 249.618L78.7063 217.654H113.694L96.2 249.618Z" fill="#61C891"/>
<path d="M23.7 281.618L5.77327 249.654H41.6267L23.7 281.618Z" fill="#61C891"/>
<path d="M132.7 281.618L114.773 249.654H150.627L132.7 281.618Z" fill="#61C891"/>
<path d="M391.7 281.618L373.773 249.654H409.627L391.7 281.618Z" fill="#61C891"/>
<path d="M169.7 281.618L151.773 249.654H187.627L169.7 281.618Z" fill="#61C891"/>
<path d="M243.7 281.618L225.773 249.654H261.627L243.7 281.618Z" fill="#61C891"/>
<path d="M280.7 281.618L262.773 249.654H298.627L280.7 281.618Z" fill="#61C891"/>
<path d="M206.7 281.618L188.773 249.654H224.627L206.7 281.618Z" fill="#61C891"/>
<path d="M317.7 281.618L299.773 249.654H335.627L317.7 281.618Z" fill="#61C891"/>
<path d="M354.7 281.618L336.773 249.654H372.627L354.7 281.618Z" fill="#61C891"/>
<path d="M60.2 281.618L42.7063 249.654H77.6937L60.2 281.618Z" fill="#61C891"/>
<path d="M96.2 281.618L78.7063 249.654H113.694L96.2 281.618Z" fill="#61C891"/>
</g>
<defs>
<clipPath id="clip0">
<rect width="414" height="1253" fill="white"/>
</clipPath>
</defs>
</svg>
